<svg width="100%" height="100%" viewBox="0 0 20 8" version="1.1" xmlns="http://www.w3.org/2000/svg" xmlns:xlink="http://www.w3.org/1999/xlink" xml:space="preserve" xmlns:serif="http://www.serif.com/" style="fill-rule:evenodd;clip-rule:evenodd;stroke-linejoin:round;stroke-miterlimit:2;"><g><path d="M2.374,4.862c-0.872,-0 -1.406,-0.553 -1.406,-1.556c0,-1.34 0.742,-2.427 1.491,-2.427c0.319,-0 0.534,0.201 0.534,0.546c-0,0.729 -0.489,0.925 -0.489,0.925c0,-0 0.105,0.221 0.423,0.221c0.404,-0 0.794,-0.332 0.794,-0.944c0,-0.579 -0.429,-1.106 -1.243,-1.106c-1.347,-0 -2.414,1.145 -2.414,2.857c-0,1.263 0.852,2.024 1.965,2.024c1.146,0 1.953,-0.651 2.031,-0.989c0.013,-0.085 -0.007,-0.143 -0.111,-0.143c-0.299,0.325 -0.865,0.592 -1.575,0.592Z" style="fill-rule:nonzero;"/><path d="M3.865,3.97c-0.046,0.261 -0.059,0.488 -0.059,0.618c0,0.521 0.313,0.814 0.762,0.814c0.631,0 1.139,-0.618 1.204,-0.963c0.019,-0.117 -0.039,-0.169 -0.124,-0.169c-0.169,0.351 -0.462,0.566 -0.722,0.566c-0.235,-0 -0.345,-0.189 -0.28,-0.573l0.638,-3.619c0.078,-0.455 0.019,-0.644 -0.482,-0.644c-0.241,0 -0.339,0.059 -0.339,0.059c0,-0 0.066,0.149 -0.006,0.559l-0.592,3.352Z" style="fill-rule:nonzero;"/><path d="M8.59,2.681c0.065,-0.351 0.15,-0.468 0.15,-0.468c-0,-0 -0.105,-0.065 -0.326,-0.065c-0.319,-0 -0.482,0.084 -0.586,0.319c-0.149,-0.189 -0.377,-0.319 -0.703,-0.319c-0.761,-0 -1.607,0.683 -1.607,2.135c-0,0.761 0.423,1.119 0.957,1.119c0.371,0 0.729,-0.254 0.995,-0.735c0.033,0.468 0.332,0.735 0.762,0.735c0.631,0 1.1,-0.618 1.165,-0.963c0.019,-0.117 -0.039,-0.169 -0.124,-0.169c-0.169,0.351 -0.462,0.566 -0.683,0.566c-0.234,-0 -0.352,-0.182 -0.28,-0.573l0.28,-1.582Zm-1.855,2.155c-0.241,-0 -0.384,-0.176 -0.384,-0.54c-0,-1.048 0.501,-1.706 0.944,-1.706c0.247,0 0.371,0.183 0.429,0.313l-0.058,0.306c-0.124,0.651 -0.469,1.627 -0.931,1.627Z" style="fill-rule:nonzero;"/><path d="M10.354,2.792c0.078,-0.462 0.019,-0.644 -0.482,-0.644c-0.241,-0 -0.338,0.058 -0.338,0.058c-0,0 0.065,0.15 -0.007,0.56l-0.742,4.27c-0.078,0.455 -0.019,0.644 0.482,0.644c0.241,-0 0.338,-0.059 0.338,-0.059c0,0 -0.065,-0.149 0.007,-0.559l0.345,-1.979c0.182,0.195 0.442,0.319 0.755,0.319c0.631,0 1.23,-0.488 1.484,-1.302c0.533,-0.052 0.956,-0.416 0.995,-0.644c0.013,-0.098 -0.032,-0.163 -0.117,-0.163c0,0 -0.306,0.449 -0.807,0.508c0.033,-0.169 0.052,-0.352 0.052,-0.547c0,-0.677 -0.332,-1.106 -0.937,-1.106c-0.41,-0 -0.775,0.267 -1.048,0.761l0.02,-0.117Zm0.794,0.618c-0,0.215 0.084,0.391 0.24,0.515c-0.162,0.618 -0.514,1.034 -0.872,1.034c-0.26,0 -0.41,-0.143 -0.494,-0.279l0.045,-0.248c0.117,-0.592 0.3,-0.976 0.482,-1.269c0.221,-0.351 0.41,-0.514 0.605,-0.514c0.169,-0 0.28,0.098 0.319,0.319c-0.208,0.045 -0.325,0.228 -0.325,0.442Z" style="fill-rule:nonzero;"/><path d="M14.005,3.293c-0.215,-0.11 -0.319,-0.221 -0.319,-0.41c-0,-0.228 0.176,-0.41 0.534,-0.41c0.364,0 0.553,0.248 0.553,0.553c-0,0.118 -0.033,0.189 -0.033,0.189c0,0 0.091,0.091 0.313,0.091c0.228,0 0.429,-0.143 0.429,-0.39c0,-0.339 -0.377,-0.768 -1.184,-0.768c-0.924,-0 -1.38,0.429 -1.38,0.957c-0,0.436 0.254,0.644 0.566,0.813l0.638,0.339c0.234,0.123 0.319,0.253 0.319,0.41c-0,0.214 -0.176,0.41 -0.547,0.41c-0.371,-0.007 -0.54,-0.235 -0.54,-0.554c0,-0.117 0.033,-0.188 0.033,-0.188c-0,-0 -0.092,-0.091 -0.313,-0.091c-0.228,-0 -0.429,0.143 -0.429,0.39c-0,0.338 0.351,0.768 1.184,0.768c0.944,0 1.38,-0.443 1.38,-0.957c-0,-0.345 -0.169,-0.612 -0.644,-0.859l-0.56,-0.293Z" style="fill-rule:nonzero;"/><path d="M15.866,3.97c-0.045,0.261 -0.058,0.488 -0.058,0.618c-0,0.521 0.312,0.814 0.761,0.814c0.632,0 1.1,-0.618 1.165,-0.963c0.02,-0.117 -0.039,-0.169 -0.123,-0.169c-0.17,0.351 -0.463,0.566 -0.684,0.566c-0.234,-0 -0.345,-0.182 -0.28,-0.573l0.254,-1.471c0.078,-0.455 0.02,-0.644 -0.481,-0.644c-0.241,-0 -0.339,0.058 -0.339,0.058c0,0 0.065,0.144 -0.006,0.56l-0.209,1.204Zm0.436,-2.798c0,0.227 0.157,0.39 0.391,0.39c0.286,0 0.468,-0.221 0.468,-0.449c0,-0.234 -0.156,-0.41 -0.403,-0.41c-0.247,-0 -0.456,0.202 -0.456,0.469Z" style="fill:#0097b2;fill-rule:nonzero;"/><path d="M17.637,2.148c-0.144,-0 -0.222,0.078 -0.222,0.189c0,0.084 0.046,0.136 0.046,0.136l0.423,0l-0.241,1.374c-0.058,0.331 -0.071,0.546 -0.071,0.696c-0,0.521 0.377,0.859 0.859,0.859c0.618,0 1.145,-0.566 1.243,-0.963c0.026,-0.111 -0.033,-0.169 -0.117,-0.169c-0.144,0.273 -0.41,0.566 -0.781,0.566c-0.306,-0 -0.436,-0.215 -0.371,-0.573l0.312,-1.79l0.527,0c0.143,0 0.221,-0.078 0.221,-0.189c0,-0.084 -0.045,-0.136 -0.045,-0.136l-0.644,-0l0.058,-0.326c0.085,-0.455 0.02,-0.644 -0.481,-0.644c-0.241,0 -0.339,0.059 -0.339,0.059c0,-0 0.072,0.149 -0.006,0.559l-0.065,0.352l-0.306,-0Z" style="fill:#0097b2;fill-rule:nonzero;"/></g></svg>