<?xml version="1.0" encoding="utf-8"?>
<!-- Generator: Adobe Illustrator 27.0.0, SVG Export Plug-In . SVG Version: 6.00 Build 0)  -->
<svg version="1.1" xmlns="http://www.w3.org/2000/svg" xmlns:xlink="http://www.w3.org/1999/xlink" x="0px" y="0px"
	 viewBox="0 0 215 215" style="enable-background:new 0 0 215 215;" xml:space="preserve">
<style type="text/css">
	.st0{fill:transparent;stroke:#000000;stroke-width:14;stroke-miterlimit:10;}
</style>
<g id="katman_2">
	<circle class="st0" cx="107.5" cy="107.5" r="100"/>
</g>
<g id="katman_1" xmlns:serif="http://www.serif.com/">
	<path d="M144,113.8c14.8,0,29-10.7,29-30.5c0-18.7-15.7-35.8-45.4-35.8c-49.2,0-88.2,37-88.2,92.4c0,40.8,31.2,65.4,71.8,65.4
		c41.9,0,71.4-21,74.2-32c0.5-2.7-0.2-4.6-4-4.6c-10.9,10.5-31.6,19.1-57.6,19.1h0c-31.9,0-51.4-17.9-51.4-50.3
		c0-43.3,27.1-78.5,54.5-78.5c11.6,0,19.5,6.5,19.5,17.7c0,23.6-17.9,29.9-17.9,29.9S132.3,113.8,144,113.8"/>
</g>
</svg>
