<svg width="1301" height="920" viewBox="0 0 1301 920" fill="none" xmlns="http://www.w3.org/2000/svg">
<rect x="452" y="1" width="398" height="398" rx="79" fill="#FFF" stroke="#BDBDBD" stroke-width="2"/>
<path d="M651 137H714V200C714 234.794 685.794 263 651 263C616.206 263 588 234.794 588 200C588 165.206 616.206 137 651 137Z" fill="#0097B2" stroke="#0097B2" stroke-width="74"/>
<rect x="663" y="112" width="76" height="76" rx="38" fill="#FFF" stroke="#0097B2" stroke-width="24"/>
<path d="M82.0625 717.8C82.0625 729 85.7958 737.8 93.2625 744.2C100.729 750.333 108.596 753.4 116.863 753.4C125.396 753.4 133.263 751 140.463 746.2C147.929 741.133 153.929 738.6 158.463 738.6C166.463 738.6 176.196 745.667 187.663 759.8C193.796 767.533 196.863 774.467 196.863 780.6C196.863 790.733 189.529 800.2 174.863 809C159.663 819.667 140.996 825 118.863 825C94.0625 825 70.1958 816.067 47.2625 798.2C36.3292 789.667 27.3958 778.333 20.4625 764.2C13.5292 749.8 10.0625 734.067 10.0625 717C10.0625 699.667 13.5292 684.067 20.4625 670.2C27.3958 656.067 36.3292 644.733 47.2625 636.2C69.3958 618.6 92.9958 609.8 118.063 609.8C128.196 609.8 138.063 611.267 147.663 614.2C157.263 616.867 164.329 619.533 168.863 622.2L175.263 626.2C180.063 629.4 183.796 631.933 186.463 633.8C193.396 639.133 196.863 645.267 196.863 652.2C196.863 658.867 194.063 666.467 188.463 675C178.863 689.667 169.663 697 160.863 697C155.796 697 148.596 694.067 139.263 688.2C134.463 683.667 127.529 681.4 118.463 681.4C109.663 681.4 101.396 684.6 93.6625 691C85.9292 697.4 82.0625 706.333 82.0625 717.8ZM222.703 548.2C222.703 542.067 222.836 537.533 223.103 534.6C223.636 531.4 224.836 527.8 226.703 523.8C230.436 516.6 240.836 513 257.903 513C274.17 513 284.303 516.6 288.303 523.8C290.436 527.8 291.636 531.4 291.903 534.6C292.436 537.8 292.703 542.467 292.703 548.6V733.8C292.703 743.4 293.503 749.533 295.103 752.2C296.703 754.6 300.17 755.8 305.503 755.8C311.103 755.8 314.836 756.067 316.703 756.6C318.57 756.867 320.836 757.933 323.503 759.8C328.836 763.267 331.503 772.733 331.503 788.2C331.503 805 328.836 815.267 323.503 819C316.57 823.8 300.036 824.6 273.903 821.4C253.37 818.733 240.036 811.933 233.903 801C226.436 787.933 222.703 767.133 222.703 738.6V548.2ZM490.363 634.6C491.963 619.667 502.496 612.2 521.963 612.2C532.363 612.2 540.096 613 545.163 614.6C550.229 616.2 553.696 619 555.563 623C557.696 627 558.896 630.6 559.163 633.8C559.696 636.733 559.963 641.267 559.963 647.4V787.4C559.963 793.533 559.696 798.2 559.163 801.4C558.896 804.333 557.829 807.8 555.963 811.8C552.229 818.733 543.029 822.2 528.363 822.2C513.963 822.2 504.229 820.467 499.163 817C494.363 813.267 491.563 807.933 490.763 801C480.896 815.133 464.363 822.2 441.163 822.2C418.229 822.2 396.896 811.667 377.163 790.6C357.429 769.533 347.563 745.133 347.563 717.4C347.563 689.4 357.429 665 377.163 644.2C397.163 623.133 419.029 612.6 442.763 612.6C451.829 612.6 460.096 614.2 467.563 617.4C475.029 620.6 480.229 623.667 483.163 626.6C486.096 629.267 488.496 631.933 490.363 634.6ZM417.563 717.8C417.563 726.6 421.029 734.6 427.963 741.8C434.896 748.733 443.296 752.2 453.163 752.2C463.029 752.2 471.163 748.6 477.563 741.4C484.229 734.2 487.563 726.333 487.563 717.8C487.563 709 484.363 700.867 477.963 693.4C471.829 685.933 463.429 682.2 452.763 682.2C442.363 682.2 433.829 685.933 427.163 693.4C420.763 700.867 417.563 709 417.563 717.8ZM591.844 880.2V646.6C591.844 640.467 591.977 635.933 592.244 633C592.777 630.067 593.977 626.733 595.844 623C599.577 615.8 608.51 612.2 622.644 612.2C636.777 612.2 646.244 614.067 651.044 617.8C656.11 621.267 659.044 626.467 659.844 633.4C669.977 619.533 685.844 612.6 707.444 612.6C729.31 612.6 749.977 622.867 769.444 643.4C788.91 663.933 798.644 687.8 798.644 715C798.644 742.2 788.91 766.067 769.444 786.6C750.244 807.133 729.71 817.4 707.844 817.4C685.977 817.4 670.11 811.267 660.244 799V879.8C660.244 885.933 659.977 890.467 659.444 893.4C659.177 896.333 657.977 899.667 655.844 903.4C653.977 907.4 650.644 910.2 645.844 911.8C641.044 913.4 634.51 914.2 626.244 914.2C617.977 914.2 611.31 913.4 606.244 911.8C601.444 910.2 597.977 907.533 595.844 903.8C593.977 900.067 592.777 896.733 592.244 893.8C591.977 890.867 591.844 886.333 591.844 880.2ZM671.044 691.8C664.91 699 661.844 706.867 661.844 715.4C661.844 723.933 664.91 731.8 671.044 739C677.444 745.933 685.444 749.4 695.044 749.4C704.91 749.4 713.177 745.933 719.844 739C726.777 732.067 730.244 724.2 730.244 715.4C730.244 706.6 727.044 698.733 720.644 691.8C714.244 684.6 705.844 681 695.444 681C685.31 681 677.177 684.6 671.044 691.8ZM826.256 804.2C821.19 801 818.656 795.933 818.656 789C818.656 782.067 823.723 771.533 833.856 757.4C836.79 752.867 841.456 750.6 847.856 750.6C854.523 750.6 863.456 753.933 874.656 760.6C885.856 767 895.99 770.2 905.056 770.2C921.323 770.2 929.456 767 929.456 760.6C929.456 755.533 920.523 751.8 902.656 749.4C885.856 747 869.19 740.733 852.656 730.6C844.923 725.8 838.523 718.333 833.456 708.2C828.39 697.8 825.856 685.533 825.856 671.4C825.856 629.267 854.79 608.2 912.656 608.2C931.59 608.2 951.056 612.733 971.056 621.8C980.39 626.067 985.056 631.4 985.056 637.8C985.056 644.2 982.123 652.067 976.256 661.4C970.39 670.733 964.39 675.4 958.256 675.4C955.056 675.4 949.056 673.4 940.256 669.4C931.723 665.4 922.39 663.4 912.256 663.4C896.523 663.4 888.656 666.333 888.656 672.2C888.656 680.2 897.723 685.4 915.856 687.8C933.456 689.667 950.523 694.733 967.056 703C974.79 706.733 981.19 713.267 986.256 722.6C991.59 731.667 994.256 743.133 994.256 757C994.256 770.867 991.59 782.733 986.256 792.6C981.19 802.2 973.99 809.4 964.656 814.2C947.59 822.467 926.123 826.6 900.256 826.6C874.656 826.6 849.99 819.133 826.256 804.2Z" fill="#0097B2"/>
<path d="M1020.36 647.4C1020.36 641.267 1020.49 636.733 1020.76 633.8C1021.29 630.6 1022.49 627 1024.36 623C1028.09 616.067 1038.49 612.6 1055.56 612.6C1068.36 612.6 1077.43 614.867 1082.76 619.4C1087.29 623.133 1089.69 628.867 1089.96 636.6C1090.23 639.267 1090.36 643.133 1090.36 648.2V788.2C1090.36 794.333 1090.09 799 1089.56 802.2C1089.29 805.133 1088.09 808.6 1085.96 812.6C1082.49 819.533 1072.23 823 1055.16 823C1038.36 823 1028.09 819.4 1024.36 812.2C1022.49 808.2 1021.29 804.733 1020.76 801.8C1020.49 798.867 1020.36 794.2 1020.36 787.8V647.4ZM1085.96 573.4C1084.09 577.133 1080.63 579.8 1075.56 581.4C1070.49 583 1063.69 583.8 1055.16 583.8C1046.89 583.8 1040.23 583 1035.16 581.4C1030.09 579.8 1026.49 577 1024.36 573C1022.49 569 1021.29 565.533 1020.76 562.6C1020.49 559.4 1020.36 554.733 1020.36 548.6C1020.36 542.467 1020.49 537.933 1020.76 535C1021.29 531.8 1022.49 528.333 1024.36 524.6C1028.09 517.4 1038.49 513.8 1055.56 513.8C1072.36 513.8 1082.49 517.4 1085.96 524.6C1088.09 528.6 1089.29 532.2 1089.56 535.4C1090.09 538.333 1090.36 542.867 1090.36 549C1090.36 555.133 1090.09 559.8 1089.56 563C1089.29 565.933 1088.09 569.4 1085.96 573.4ZM1244.71 683L1218.71 681.4V736.6C1218.71 743.8 1219.78 749 1221.91 752.2C1224.31 755.4 1228.58 757 1234.71 757C1241.11 757 1245.91 757.267 1249.11 757.8C1252.58 758.067 1256.18 759.267 1259.91 761.4C1266.05 764.867 1269.11 773.8 1269.11 788.2C1269.11 805 1265.38 815.267 1257.91 819C1253.91 820.867 1250.31 822.067 1247.11 822.6C1244.18 822.867 1239.78 823 1233.91 823C1206.18 823 1185.11 816.733 1170.71 804.2C1156.31 791.667 1149.11 770.467 1149.11 740.6V681.4C1144.05 682.2 1138.58 682.6 1132.71 682.6C1126.85 682.6 1121.91 680.333 1117.91 675.8C1114.18 671.267 1112.31 663.533 1112.31 652.6C1112.31 641.667 1112.98 633.8 1114.31 629C1115.65 623.933 1117.51 620.333 1119.91 618.2C1124.18 614.733 1129.51 613 1135.91 613L1149.11 614.6V573.4C1149.11 567.267 1149.25 562.733 1149.51 559.8C1150.05 556.867 1151.38 553.667 1153.51 550.2C1156.98 543.533 1167.25 540.2 1184.31 540.2C1202.45 540.2 1213.25 545.133 1216.71 555C1218.05 559.267 1218.71 566.067 1218.71 575.4V614.6C1230.45 613.533 1239.25 613 1245.11 613C1251.25 613 1255.78 613.267 1258.71 613.8C1261.91 614.067 1265.51 615.267 1269.51 617.4C1276.45 620.867 1279.91 631.133 1279.91 648.2C1279.91 665 1276.31 675.267 1269.11 679C1265.11 680.867 1261.51 682.067 1258.31 682.6C1255.38 682.867 1250.85 683 1244.71 683Z" fill="#fff"/>
<path d="M120.024 871.645C121.494 872.665 122.229 873.655 122.229 874.615C122.229 875.185 121.884 875.98 121.194 877L111.474 891.535V900.13C111.474 900.82 111.444 901.345 111.384 901.705C111.354 902.035 111.219 902.425 110.979 902.875C110.739 903.325 110.334 903.64 109.764 903.82C109.194 904 108.429 904.09 107.469 904.09C106.509 904.09 105.744 904 105.174 903.82C104.604 903.64 104.199 903.325 103.959 902.875C103.719 902.395 103.569 901.99 103.509 901.66C103.479 901.3 103.464 900.76 103.464 900.04V891.535L93.7437 877C93.0537 875.98 92.7087 875.185 92.7087 874.615C92.7087 873.655 93.3687 872.74 94.6887 871.87C96.0087 870.97 96.9537 870.52 97.5237 870.52C98.0937 870.52 98.5437 870.64 98.8737 870.88C99.3837 871.21 99.9237 871.825 100.494 872.725L107.469 883.885L114.444 872.725C115.014 871.825 115.509 871.24 115.929 870.97C116.349 870.67 116.829 870.52 117.369 870.52C117.939 870.52 118.824 870.895 120.024 871.645ZM170.763 870.61C175.203 870.61 179.058 872.215 182.328 875.425C185.598 878.635 187.233 882.625 187.233 887.395C187.233 892.135 185.673 896.185 182.553 899.545C179.433 902.875 175.593 904.54 171.033 904.54C166.473 904.54 162.588 902.89 159.378 899.59C156.198 896.29 154.608 892.36 154.608 887.8C154.608 885.31 155.058 882.985 155.958 880.825C156.858 878.635 158.058 876.805 159.558 875.335C161.058 873.865 162.783 872.71 164.733 871.87C166.683 871.03 168.693 870.61 170.763 870.61ZM162.573 887.575C162.573 890.245 163.428 892.42 165.138 894.1C166.878 895.75 168.813 896.575 170.943 896.575C173.073 896.575 174.993 895.765 176.703 894.145C178.413 892.525 179.268 890.35 179.268 887.62C179.268 884.89 178.398 882.7 176.658 881.05C174.948 879.4 173.028 878.575 170.898 878.575C168.768 878.575 166.848 879.415 165.138 881.095C163.428 882.745 162.573 884.905 162.573 887.575ZM242.331 872.23C242.631 871.75 243.066 871.42 243.636 871.24C244.206 871.06 244.911 870.97 245.751 870.97C246.621 870.97 247.311 871.045 247.821 871.195C248.331 871.345 248.721 871.525 248.991 871.735C249.261 871.945 249.456 872.26 249.576 872.68C249.756 873.19 249.846 873.97 249.846 875.02V888.61C249.846 892.57 248.616 896.17 246.156 899.41C244.956 900.94 243.411 902.185 241.521 903.145C239.631 904.075 237.531 904.54 235.221 904.54C232.941 904.54 230.856 904.06 228.966 903.1C227.106 902.14 225.591 900.88 224.421 899.32C221.991 896.14 220.776 892.54 220.776 888.52V874.975C220.776 874.255 220.791 873.73 220.821 873.4C220.881 873.04 221.031 872.635 221.271 872.185C221.511 871.735 221.916 871.42 222.486 871.24C223.056 871.06 223.821 870.97 224.781 870.97C225.741 870.97 226.506 871.06 227.076 871.24C227.646 871.42 228.036 871.735 228.246 872.185C228.606 872.875 228.786 873.82 228.786 875.02V888.52C228.786 890.35 229.236 892.09 230.136 893.74C230.586 894.58 231.261 895.255 232.161 895.765C233.061 896.275 234.126 896.53 235.356 896.53C237.546 896.53 239.181 895.72 240.261 894.1C241.341 892.48 241.881 890.605 241.881 888.475V874.705C241.881 873.535 242.031 872.71 242.331 872.23ZM309.272 898.42C309.722 899.5 309.947 900.28 309.947 900.76C309.947 901.9 309.017 902.86 307.157 903.64C306.197 904.06 305.417 904.27 304.817 904.27C304.247 904.27 303.767 904.135 303.377 903.865C303.017 903.565 302.747 903.265 302.567 902.965C302.267 902.395 301.097 899.68 299.057 894.82L297.662 894.91H291.992V899.995C291.992 900.685 291.962 901.21 291.902 901.57C291.872 901.9 291.737 902.29 291.497 902.74C291.077 903.55 289.907 903.955 287.987 903.955C285.887 903.955 284.657 903.4 284.297 902.29C284.117 901.78 284.027 901 284.027 899.95V874.975C284.027 874.285 284.042 873.775 284.072 873.445C284.132 873.085 284.282 872.68 284.522 872.23C284.942 871.42 286.112 871.015 288.032 871.015H297.752C300.392 871.015 302.957 871.975 305.447 873.895C306.647 874.825 307.637 876.085 308.417 877.675C309.197 879.265 309.587 881.035 309.587 882.985C309.587 886.375 308.462 889.165 306.212 891.355C306.872 892.945 307.892 895.3 309.272 898.42ZM291.992 886.945H297.752C298.622 886.945 299.492 886.615 300.362 885.955C301.232 885.295 301.667 884.305 301.667 882.985C301.667 881.665 301.232 880.675 300.362 880.015C299.492 879.325 298.592 878.98 297.662 878.98H291.992V886.945ZM406.283 872.41C406.583 871.87 407.018 871.51 407.588 871.33C408.158 871.15 408.863 871.06 409.703 871.06C410.573 871.06 411.263 871.135 411.773 871.285C412.313 871.435 412.703 871.615 412.943 871.825C413.213 872.035 413.408 872.35 413.528 872.77C413.708 873.25 413.798 874.015 413.798 875.065V900.04C413.798 900.76 413.768 901.285 413.708 901.615C413.678 901.945 413.543 902.335 413.303 902.785C412.883 903.595 411.713 904 409.793 904C408.623 904 407.813 903.91 407.363 903.73C406.913 903.55 406.538 903.265 406.238 902.875C399.488 893.875 395.048 887.995 392.918 885.235V900.04C392.918 900.76 392.888 901.285 392.828 901.615C392.798 901.945 392.663 902.335 392.423 902.785C392.003 903.595 390.833 904 388.913 904C387.053 904 385.913 903.595 385.493 902.785C385.253 902.335 385.103 901.93 385.043 901.57C385.013 901.21 384.998 900.685 384.998 899.995V874.885C384.998 873.745 385.133 872.92 385.403 872.41C385.703 871.87 386.138 871.51 386.708 871.33C387.278 871.15 388.013 871.06 388.913 871.06C389.813 871.06 390.518 871.15 391.028 871.33C391.568 871.48 391.943 871.66 392.153 871.87C392.273 871.96 392.618 872.35 393.188 873.04C399.518 881.65 403.748 887.335 405.878 890.095V874.885C405.878 873.745 406.013 872.92 406.283 872.41ZM455.95 896.035H469.81C470.5 896.035 471.01 896.065 471.34 896.125C471.7 896.155 472.105 896.29 472.555 896.53C473.365 896.95 473.77 898.12 473.77 900.04C473.77 902.14 473.215 903.37 472.105 903.73C471.595 903.91 470.815 904 469.765 904H451.945C449.845 904 448.615 903.43 448.255 902.29C448.075 901.81 447.985 901.045 447.985 899.995V874.975C447.985 873.445 448.27 872.41 448.84 871.87C449.41 871.3 450.49 871.015 452.08 871.015H469.81C470.5 871.015 471.01 871.045 471.34 871.105C471.7 871.135 472.105 871.27 472.555 871.51C473.365 871.93 473.77 873.1 473.77 875.02C473.77 877.12 473.215 878.35 472.105 878.71C471.595 878.89 470.815 878.98 469.765 878.98H455.95V883.525H464.86C465.55 883.525 466.06 883.555 466.39 883.615C466.75 883.645 467.155 883.78 467.605 884.02C468.415 884.44 468.82 885.61 468.82 887.53C468.82 889.63 468.25 890.86 467.11 891.22C466.6 891.4 465.82 891.49 464.77 891.49H455.95V896.035ZM546.747 871.195C548.757 871.915 549.762 872.875 549.762 874.075C549.762 874.465 549.582 875.2 549.222 876.28L540.582 901.255C540.522 901.465 540.417 901.72 540.267 902.02C540.117 902.32 539.712 902.725 539.052 903.235C538.422 903.715 537.657 903.955 536.757 903.955C535.887 903.955 535.122 903.715 534.462 903.235C533.832 902.725 533.412 902.23 533.202 901.75L527.937 886.225C524.607 896.065 522.912 901.075 522.852 901.255C522.792 901.435 522.657 901.69 522.447 902.02C522.237 902.35 521.997 902.65 521.727 902.92C521.037 903.61 520.212 903.955 519.252 903.955C518.292 903.955 517.497 903.73 516.867 903.28C516.267 902.83 515.862 902.38 515.652 901.93L515.337 901.255L506.652 876.28C506.322 875.29 506.157 874.555 506.157 874.075C506.157 872.875 507.162 871.93 509.172 871.24C510.042 870.94 510.822 870.79 511.512 870.79C512.232 870.79 512.772 871.03 513.132 871.51C513.522 871.99 513.867 872.725 514.167 873.715L519.117 888.745L524.022 873.94C524.442 872.68 525.207 871.81 526.317 871.33C526.797 871.12 527.412 871.015 528.162 871.015C528.942 871.015 529.662 871.27 530.322 871.78C530.982 872.26 531.402 872.74 531.582 873.22L536.757 888.835L541.707 873.715C541.947 873.025 542.142 872.515 542.292 872.185C542.442 871.855 542.712 871.54 543.102 871.24C543.522 870.91 544.032 870.745 544.632 870.745C545.232 870.745 545.937 870.895 546.747 871.195Z" fill="#fff"/>
<path d="M716.748 896.035H730.608C731.298 896.035 731.808 896.065 732.138 896.125C732.498 896.155 732.903 896.29 733.353 896.53C734.163 896.95 734.568 898.12 734.568 900.04C734.568 902.14 734.013 903.37 732.903 903.73C732.393 903.91 731.613 904 730.563 904H712.743C710.643 904 709.413 903.43 709.053 902.29C708.873 901.81 708.783 901.045 708.783 899.995V874.975C708.783 873.445 709.068 872.41 709.638 871.87C710.208 871.3 711.288 871.015 712.878 871.015H730.608C731.298 871.015 731.808 871.045 732.138 871.105C732.498 871.135 732.903 871.27 733.353 871.51C734.163 871.93 734.568 873.1 734.568 875.02C734.568 877.12 734.013 878.35 732.903 878.71C732.393 878.89 731.613 878.98 730.563 878.98H716.748V883.525H725.658C726.348 883.525 726.858 883.555 727.188 883.615C727.548 883.645 727.953 883.78 728.403 884.02C729.213 884.44 729.618 885.61 729.618 887.53C729.618 889.63 729.048 890.86 727.908 891.22C727.398 891.4 726.618 891.49 725.568 891.49H716.748V896.035ZM793.325 898.42C793.775 899.5 794 900.28 794 900.76C794 901.9 793.07 902.86 791.21 903.64C790.25 904.06 789.47 904.27 788.87 904.27C788.3 904.27 787.82 904.135 787.43 903.865C787.07 903.565 786.8 903.265 786.62 902.965C786.32 902.395 785.15 899.68 783.11 894.82L781.715 894.91H776.045V899.995C776.045 900.685 776.015 901.21 775.955 901.57C775.925 901.9 775.79 902.29 775.55 902.74C775.13 903.55 773.96 903.955 772.04 903.955C769.94 903.955 768.71 903.4 768.35 902.29C768.17 901.78 768.08 901 768.08 899.95V874.975C768.08 874.285 768.095 873.775 768.125 873.445C768.185 873.085 768.335 872.68 768.575 872.23C768.995 871.42 770.165 871.015 772.085 871.015H781.805C784.445 871.015 787.01 871.975 789.5 873.895C790.7 874.825 791.69 876.085 792.47 877.675C793.25 879.265 793.64 881.035 793.64 882.985C793.64 886.375 792.515 889.165 790.265 891.355C790.925 892.945 791.945 895.3 793.325 898.42ZM776.045 886.945H781.805C782.675 886.945 783.545 886.615 784.415 885.955C785.285 885.295 785.72 884.305 785.72 882.985C785.72 881.665 785.285 880.675 784.415 880.015C783.545 879.325 782.645 878.98 781.715 878.98H776.045V886.945ZM827.124 899.365C826.344 898.405 825.954 897.55 825.954 896.8C825.954 896.02 826.599 895 827.889 893.74C828.639 893.02 829.434 892.66 830.274 892.66C831.114 892.66 832.284 893.41 833.784 894.91C834.204 895.42 834.804 895.915 835.584 896.395C836.364 896.845 837.084 897.07 837.744 897.07C840.534 897.07 841.929 895.93 841.929 893.65C841.929 892.96 841.539 892.39 840.759 891.94C840.009 891.46 839.064 891.115 837.924 890.905C836.784 890.695 835.554 890.365 834.234 889.915C832.914 889.435 831.684 888.88 830.544 888.25C829.404 887.62 828.444 886.63 827.664 885.28C826.914 883.9 826.539 882.25 826.539 880.33C826.539 877.69 827.514 875.395 829.464 873.445C831.444 871.465 834.129 870.475 837.519 870.475C839.319 870.475 840.954 870.715 842.424 871.195C843.924 871.645 844.959 872.11 845.529 872.59L846.654 873.445C847.584 874.315 848.049 875.05 848.049 875.65C848.049 876.25 847.689 877.075 846.969 878.125C845.949 879.625 844.899 880.375 843.819 880.375C843.189 880.375 842.409 880.075 841.479 879.475C841.389 879.415 841.209 879.265 840.939 879.025C840.699 878.785 840.474 878.59 840.264 878.44C839.634 878.05 838.824 877.855 837.834 877.855C836.874 877.855 836.064 878.095 835.404 878.575C834.774 879.025 834.459 879.67 834.459 880.51C834.459 881.32 834.834 881.98 835.584 882.49C836.364 883 837.324 883.345 838.464 883.525C839.604 883.705 840.849 883.99 842.199 884.38C843.549 884.74 844.794 885.19 845.934 885.73C847.074 886.27 848.019 887.215 848.769 888.565C849.549 889.885 849.939 891.52 849.939 893.47C849.939 895.42 849.549 897.145 848.769 898.645C847.989 900.115 846.969 901.255 845.709 902.065C843.279 903.655 840.684 904.45 837.924 904.45C836.514 904.45 835.179 904.285 833.919 903.955C832.659 903.595 831.639 903.16 830.859 902.65C829.269 901.69 828.159 900.76 827.529 899.86L827.124 899.365ZM907.809 877.675C908.589 879.265 908.979 881.035 908.979 882.985C908.979 884.935 908.589 886.705 907.809 888.295C907.029 889.855 906.024 891.1 904.794 892.03C902.304 893.95 899.724 894.91 897.054 894.91H891.429V899.995C891.429 900.685 891.399 901.21 891.339 901.57C891.309 901.9 891.174 902.29 890.934 902.74C890.514 903.55 889.344 903.955 887.424 903.955C885.324 903.955 884.094 903.4 883.734 902.29C883.554 901.78 883.464 901 883.464 899.95V874.975C883.464 874.285 883.479 873.775 883.509 873.445C883.569 873.085 883.719 872.68 883.959 872.23C884.379 871.42 885.549 871.015 887.469 871.015H897.099C899.739 871.015 902.304 871.975 904.794 873.895C906.024 874.825 907.029 876.085 907.809 877.675ZM897.099 886.945C897.999 886.945 898.884 886.615 899.754 885.955C900.624 885.295 901.059 884.305 901.059 882.985C901.059 881.665 900.624 880.675 899.754 880.015C898.884 879.325 897.984 878.98 897.054 878.98H891.429V886.945H897.099ZM950.462 896.035H964.322C965.012 896.035 965.522 896.065 965.852 896.125C966.212 896.155 966.617 896.29 967.067 896.53C967.877 896.95 968.282 898.12 968.282 900.04C968.282 902.14 967.727 903.37 966.617 903.73C966.107 903.91 965.327 904 964.277 904H946.457C944.357 904 943.127 903.43 942.767 902.29C942.587 901.81 942.497 901.045 942.497 899.995V874.975C942.497 873.445 942.782 872.41 943.352 871.87C943.922 871.3 945.002 871.015 946.592 871.015H964.322C965.012 871.015 965.522 871.045 965.852 871.105C966.212 871.135 966.617 871.27 967.067 871.51C967.877 871.93 968.282 873.1 968.282 875.02C968.282 877.12 967.727 878.35 966.617 878.71C966.107 878.89 965.327 878.98 964.277 878.98H950.462V883.525H959.372C960.062 883.525 960.572 883.555 960.902 883.615C961.262 883.645 961.667 883.78 962.117 884.02C962.927 884.44 963.332 885.61 963.332 887.53C963.332 889.63 962.762 890.86 961.622 891.22C961.112 891.4 960.332 891.49 959.282 891.49H950.462V896.035ZM1022.4 895.36L1023.21 894.775C1024.23 894.175 1024.95 893.875 1025.37 893.875C1026.3 893.875 1027.31 894.715 1028.39 896.395C1029.05 897.445 1029.38 898.285 1029.38 898.915C1029.38 899.545 1029.17 900.07 1028.75 900.49C1028.36 900.91 1027.89 901.285 1027.35 901.615C1026.81 901.945 1026.29 902.26 1025.78 902.56C1025.3 902.86 1024.29 903.25 1022.76 903.73C1021.23 904.21 1019.75 904.45 1018.31 904.45C1016.9 904.45 1015.46 904.27 1013.99 903.91C1012.55 903.52 1011.05 902.89 1009.49 902.02C1007.96 901.12 1006.58 900.04 1005.35 898.78C1004.12 897.49 1003.1 895.855 1002.29 893.875C1001.51 891.865 1001.12 889.69 1001.12 887.35C1001.12 885.01 1001.51 882.895 1002.29 881.005C1003.07 879.085 1004.06 877.51 1005.26 876.28C1006.49 875.02 1007.88 873.97 1009.44 873.13C1012.38 871.51 1015.34 870.7 1018.31 870.7C1019.72 870.7 1021.14 870.925 1022.58 871.375C1024.05 871.795 1025.16 872.23 1025.91 872.68L1026.99 873.31C1027.53 873.64 1027.95 873.91 1028.25 874.12C1029.03 874.75 1029.42 875.47 1029.42 876.28C1029.42 877.06 1029.11 877.885 1028.48 878.755C1027.31 880.375 1026.26 881.185 1025.33 881.185C1024.79 881.185 1024.02 880.855 1023.03 880.195C1021.77 879.175 1020.09 878.665 1017.99 878.665C1016.04 878.665 1014.12 879.34 1012.23 880.69C1011.33 881.35 1010.58 882.28 1009.98 883.48C1009.38 884.68 1009.08 886.045 1009.08 887.575C1009.08 889.075 1009.38 890.425 1009.98 891.625C1010.58 892.825 1011.35 893.77 1012.28 894.46C1014.11 895.78 1016.01 896.44 1017.99 896.44C1018.92 896.44 1019.79 896.32 1020.6 896.08C1021.44 895.84 1022.04 895.6 1022.4 895.36ZM1065.1 870.97H1090.12C1091.08 870.97 1091.78 871.09 1092.23 871.33C1092.68 871.54 1092.98 871.885 1093.13 872.365C1093.28 872.845 1093.36 873.475 1093.36 874.255C1093.36 875.035 1093.28 875.665 1093.13 876.145C1092.98 876.595 1092.73 876.91 1092.37 877.09C1091.83 877.36 1091.06 877.495 1090.07 877.495H1081.48V900.13C1081.48 900.82 1081.45 901.33 1081.39 901.66C1081.36 901.99 1081.22 902.38 1080.98 902.83C1080.77 903.25 1080.38 903.55 1079.81 903.73C1079.24 903.91 1078.49 904 1077.56 904C1076.63 904 1075.88 903.91 1075.31 903.73C1074.77 903.55 1074.38 903.25 1074.14 902.83C1073.93 902.38 1073.8 901.99 1073.74 901.66C1073.71 901.3 1073.69 900.775 1073.69 900.085V877.495H1065.05C1064.09 877.495 1063.39 877.39 1062.94 877.18C1062.49 876.94 1062.19 876.58 1062.04 876.1C1061.89 875.62 1061.81 874.99 1061.81 874.21C1061.81 873.43 1061.89 872.815 1062.04 872.365C1062.19 871.885 1062.44 871.555 1062.8 871.375C1063.34 871.105 1064.11 870.97 1065.1 870.97ZM1126.45 874.975C1126.45 874.285 1126.47 873.775 1126.5 873.445C1126.56 873.085 1126.71 872.68 1126.95 872.23C1127.37 871.42 1128.54 871.015 1130.46 871.015C1132.56 871.015 1133.8 871.57 1134.19 872.68C1134.34 873.19 1134.42 873.97 1134.42 875.02V900.04C1134.42 900.76 1134.39 901.285 1134.33 901.615C1134.3 901.945 1134.16 902.335 1133.92 902.785C1133.5 903.595 1132.33 904 1130.41 904C1128.31 904 1127.08 903.43 1126.72 902.29C1126.54 901.81 1126.45 901.045 1126.45 899.995V874.975ZM1198.71 871.51C1200.48 872.38 1201.37 873.34 1201.37 874.39C1201.37 874.87 1201.14 875.59 1200.69 876.55L1188.27 901.75C1187.94 902.41 1187.43 902.95 1186.74 903.37C1186.08 903.76 1185.39 903.955 1184.67 903.955H1184.22C1183.47 903.955 1182.75 903.76 1182.06 903.37C1181.4 902.95 1180.91 902.41 1180.58 901.75L1168.16 876.55C1167.71 875.59 1167.48 874.87 1167.48 874.39C1167.48 873.34 1168.37 872.38 1170.14 871.51C1171.13 871 1171.88 870.745 1172.39 870.745C1172.93 870.745 1173.33 870.805 1173.6 870.925C1173.87 871.045 1174.13 871.255 1174.37 871.555C1174.64 871.915 1174.88 872.32 1175.09 872.77C1175.33 873.19 1175.91 874.435 1176.84 876.505C1177.77 878.545 1178.76 880.72 1179.81 883.03C1180.89 885.34 1181.9 887.53 1182.83 889.6C1183.79 891.64 1184.33 892.78 1184.45 893.02L1193.45 873.31C1193.69 872.74 1193.9 872.29 1194.08 871.96C1194.62 871.15 1195.28 870.745 1196.06 870.745C1196.84 870.745 1197.72 871 1198.71 871.51ZM1242.42 896.035H1256.28C1256.97 896.035 1257.48 896.065 1257.81 896.125C1258.17 896.155 1258.57 896.29 1259.02 896.53C1259.83 896.95 1260.24 898.12 1260.24 900.04C1260.24 902.14 1259.68 903.37 1258.57 903.73C1258.06 903.91 1257.28 904 1256.23 904H1238.41C1236.31 904 1235.08 903.43 1234.72 902.29C1234.54 901.81 1234.45 901.045 1234.45 899.995V874.975C1234.45 873.445 1234.74 872.41 1235.31 871.87C1235.88 871.3 1236.96 871.015 1238.55 871.015H1256.28C1256.97 871.015 1257.48 871.045 1257.81 871.105C1258.17 871.135 1258.57 871.27 1259.02 871.51C1259.83 871.93 1260.24 873.1 1260.24 875.02C1260.24 877.12 1259.68 878.35 1258.57 878.71C1258.06 878.89 1257.28 878.98 1256.23 878.98H1242.42V883.525H1251.33C1252.02 883.525 1252.53 883.555 1252.86 883.615C1253.22 883.645 1253.62 883.78 1254.07 884.02C1254.88 884.44 1255.29 885.61 1255.29 887.53C1255.29 889.63 1254.72 890.86 1253.58 891.22C1253.07 891.4 1252.29 891.49 1251.24 891.49H1242.42V896.035Z" fill="#0097B2"/>
</svg>
