<svg width="1760" height="445" viewBox="0 0 1760 445" fill="none" xmlns="http://www.w3.org/2000/svg">
<rect x="1" y="24" width="398" height="398" rx="79" fill="#FFF" stroke="#BDBDBD" stroke-width="2"/>
<path d="M200 160H263V223C263 257.794 234.794 286 200 286C165.206 286 137 257.794 137 223C137 188.206 165.206 160 200 160Z" fill="#0097B2" stroke="#0097B2" stroke-width="74"/>
<rect x="212" y="135" width="76" height="76" rx="38" fill="#FFF" stroke="#0097B2" stroke-width="24"/>
<path d="M541.063 242.8C541.063 254 544.796 262.8 552.263 269.2C559.729 275.333 567.596 278.4 575.863 278.4C584.396 278.4 592.263 276 599.463 271.2C606.929 266.133 612.929 263.6 617.463 263.6C625.463 263.6 635.196 270.667 646.663 284.8C652.796 292.533 655.863 299.467 655.863 305.6C655.863 315.733 648.529 325.2 633.863 334C618.663 344.667 599.996 350 577.863 350C553.063 350 529.196 341.067 506.263 323.2C495.329 314.667 486.396 303.333 479.463 289.2C472.529 274.8 469.063 259.067 469.063 242C469.063 224.667 472.529 209.067 479.463 195.2C486.396 181.067 495.329 169.733 506.263 161.2C528.396 143.6 551.996 134.8 577.063 134.8C587.196 134.8 597.063 136.267 606.663 139.2C616.263 141.867 623.329 144.533 627.863 147.2L634.263 151.2C639.063 154.4 642.796 156.933 645.463 158.8C652.396 164.133 655.863 170.267 655.863 177.2C655.863 183.867 653.063 191.467 647.463 200C637.863 214.667 628.663 222 619.863 222C614.796 222 607.596 219.067 598.263 213.2C593.463 208.667 586.529 206.4 577.463 206.4C568.663 206.4 560.396 209.6 552.663 216C544.929 222.4 541.063 231.333 541.063 242.8ZM681.703 73.2C681.703 67.0667 681.836 62.5333 682.103 59.6C682.636 56.4 683.836 52.8 685.703 48.8C689.436 41.6 699.836 38 716.903 38C733.17 38 743.303 41.6 747.303 48.8C749.436 52.8 750.636 56.4 750.903 59.6C751.436 62.8 751.703 67.4666 751.703 73.6V258.8C751.703 268.4 752.503 274.533 754.103 277.2C755.703 279.6 759.17 280.8 764.503 280.8C770.103 280.8 773.836 281.067 775.703 281.6C777.57 281.867 779.836 282.933 782.503 284.8C787.836 288.267 790.503 297.733 790.503 313.2C790.503 330 787.836 340.267 782.503 344C775.57 348.8 759.036 349.6 732.903 346.4C712.37 343.733 699.036 336.933 692.903 326C685.436 312.933 681.703 292.133 681.703 263.6V73.2ZM949.363 159.6C950.963 144.667 961.496 137.2 980.963 137.2C991.363 137.2 999.096 138 1004.16 139.6C1009.23 141.2 1012.7 144 1014.56 148C1016.7 152 1017.9 155.6 1018.16 158.8C1018.7 161.733 1018.96 166.267 1018.96 172.4V312.4C1018.96 318.533 1018.7 323.2 1018.16 326.4C1017.9 329.333 1016.83 332.8 1014.96 336.8C1011.23 343.733 1002.03 347.2 987.363 347.2C972.963 347.2 963.229 345.467 958.163 342C953.363 338.267 950.563 332.933 949.763 326C939.896 340.133 923.363 347.2 900.163 347.2C877.229 347.2 855.896 336.667 836.163 315.6C816.429 294.533 806.563 270.133 806.563 242.4C806.563 214.4 816.429 190 836.163 169.2C856.163 148.133 878.029 137.6 901.763 137.6C910.829 137.6 919.096 139.2 926.563 142.4C934.029 145.6 939.229 148.667 942.163 151.6C945.096 154.267 947.496 156.933 949.363 159.6ZM876.563 242.8C876.563 251.6 880.029 259.6 886.963 266.8C893.896 273.733 902.296 277.2 912.163 277.2C922.029 277.2 930.163 273.6 936.563 266.4C943.229 259.2 946.563 251.333 946.563 242.8C946.563 234 943.363 225.867 936.963 218.4C930.829 210.933 922.429 207.2 911.763 207.2C901.363 207.2 892.829 210.933 886.163 218.4C879.763 225.867 876.563 234 876.563 242.8ZM1050.84 405.2V171.6C1050.84 165.467 1050.98 160.933 1051.24 158C1051.78 155.067 1052.98 151.733 1054.84 148C1058.58 140.8 1067.51 137.2 1081.64 137.2C1095.78 137.2 1105.24 139.067 1110.04 142.8C1115.11 146.267 1118.04 151.467 1118.84 158.4C1128.98 144.533 1144.84 137.6 1166.44 137.6C1188.31 137.6 1208.98 147.867 1228.44 168.4C1247.91 188.933 1257.64 212.8 1257.64 240C1257.64 267.2 1247.91 291.067 1228.44 311.6C1209.24 332.133 1188.71 342.4 1166.84 342.4C1144.98 342.4 1129.11 336.267 1119.24 324V404.8C1119.24 410.933 1118.98 415.467 1118.44 418.4C1118.18 421.333 1116.98 424.667 1114.84 428.4C1112.98 432.4 1109.64 435.2 1104.84 436.8C1100.04 438.4 1093.51 439.2 1085.24 439.2C1076.98 439.2 1070.31 438.4 1065.24 436.8C1060.44 435.2 1056.98 432.533 1054.84 428.8C1052.98 425.067 1051.78 421.733 1051.24 418.8C1050.98 415.867 1050.84 411.333 1050.84 405.2ZM1130.04 216.8C1123.91 224 1120.84 231.867 1120.84 240.4C1120.84 248.933 1123.91 256.8 1130.04 264C1136.44 270.933 1144.44 274.4 1154.04 274.4C1163.91 274.4 1172.18 270.933 1178.84 264C1185.78 257.067 1189.24 249.2 1189.24 240.4C1189.24 231.6 1186.04 223.733 1179.64 216.8C1173.24 209.6 1164.84 206 1154.44 206C1144.31 206 1136.18 209.6 1130.04 216.8ZM1285.26 329.2C1280.19 326 1277.66 320.933 1277.66 314C1277.66 307.067 1282.72 296.533 1292.86 282.4C1295.79 277.867 1300.46 275.6 1306.86 275.6C1313.52 275.6 1322.46 278.933 1333.66 285.6C1344.86 292 1354.99 295.2 1364.06 295.2C1380.32 295.2 1388.46 292 1388.46 285.6C1388.46 280.533 1379.52 276.8 1361.66 274.4C1344.86 272 1328.19 265.733 1311.66 255.6C1303.92 250.8 1297.52 243.333 1292.46 233.2C1287.39 222.8 1284.86 210.533 1284.86 196.4C1284.86 154.267 1313.79 133.2 1371.66 133.2C1390.59 133.2 1410.06 137.733 1430.06 146.8C1439.39 151.067 1444.06 156.4 1444.06 162.8C1444.06 169.2 1441.12 177.067 1435.26 186.4C1429.39 195.733 1423.39 200.4 1417.26 200.4C1414.06 200.4 1408.06 198.4 1399.26 194.4C1390.72 190.4 1381.39 188.4 1371.26 188.4C1355.52 188.4 1347.66 191.333 1347.66 197.2C1347.66 205.2 1356.72 210.4 1374.86 212.8C1392.46 214.667 1409.52 219.733 1426.06 228C1433.79 231.733 1440.19 238.267 1445.26 247.6C1450.59 256.667 1453.26 268.133 1453.26 282C1453.26 295.867 1450.59 307.733 1445.26 317.6C1440.19 327.2 1432.99 334.4 1423.66 339.2C1406.59 347.467 1385.12 351.6 1359.26 351.6C1333.66 351.6 1308.99 344.133 1285.26 329.2Z" fill="#0097B2"/>
<path d="M1479.36 172.4C1479.36 166.267 1479.49 161.733 1479.76 158.8C1480.29 155.6 1481.49 152 1483.36 148C1487.09 141.067 1497.49 137.6 1514.56 137.6C1527.36 137.6 1536.43 139.867 1541.76 144.4C1546.29 148.133 1548.69 153.867 1548.96 161.6C1549.23 164.267 1549.36 168.133 1549.36 173.2V313.2C1549.36 319.333 1549.09 324 1548.56 327.2C1548.29 330.133 1547.09 333.6 1544.96 337.6C1541.49 344.533 1531.23 348 1514.16 348C1497.36 348 1487.09 344.4 1483.36 337.2C1481.49 333.2 1480.29 329.733 1479.76 326.8C1479.49 323.867 1479.36 319.2 1479.36 312.8V172.4ZM1544.96 98.4C1543.09 102.133 1539.63 104.8 1534.56 106.4C1529.49 108 1522.69 108.8 1514.16 108.8C1505.89 108.8 1499.23 108 1494.16 106.4C1489.09 104.8 1485.49 102 1483.36 98C1481.49 94 1480.29 90.5333 1479.76 87.6C1479.49 84.4 1479.36 79.7333 1479.36 73.6C1479.36 67.4666 1479.49 62.9333 1479.76 60C1480.29 56.8 1481.49 53.3333 1483.36 49.6C1487.09 42.4 1497.49 38.8 1514.56 38.8C1531.36 38.8 1541.49 42.4 1544.96 49.6C1547.09 53.6 1548.29 57.2 1548.56 60.4C1549.09 63.3333 1549.36 67.8667 1549.36 74C1549.36 80.1333 1549.09 84.8 1548.56 88C1548.29 90.9333 1547.09 94.4 1544.96 98.4ZM1703.71 208L1677.71 206.4V261.6C1677.71 268.8 1678.78 274 1680.91 277.2C1683.31 280.4 1687.58 282 1693.71 282C1700.11 282 1704.91 282.267 1708.11 282.8C1711.58 283.067 1715.18 284.267 1718.91 286.4C1725.05 289.867 1728.11 298.8 1728.11 313.2C1728.11 330 1724.38 340.267 1716.91 344C1712.91 345.867 1709.31 347.067 1706.11 347.6C1703.18 347.867 1698.78 348 1692.91 348C1665.18 348 1644.11 341.733 1629.71 329.2C1615.31 316.667 1608.11 295.467 1608.11 265.6V206.4C1603.05 207.2 1597.58 207.6 1591.71 207.6C1585.85 207.6 1580.91 205.333 1576.91 200.8C1573.18 196.267 1571.31 188.533 1571.31 177.6C1571.31 166.667 1571.98 158.8 1573.31 154C1574.65 148.933 1576.51 145.333 1578.91 143.2C1583.18 139.733 1588.51 138 1594.91 138L1608.11 139.6V98.4C1608.11 92.2667 1608.25 87.7333 1608.51 84.8C1609.05 81.8667 1610.38 78.6667 1612.51 75.2C1615.98 68.5333 1626.25 65.2 1643.31 65.2C1661.45 65.2 1672.25 70.1333 1675.71 80C1677.05 84.2667 1677.71 91.0667 1677.71 100.4V139.6C1689.45 138.533 1698.25 138 1704.11 138C1710.25 138 1714.78 138.267 1717.71 138.8C1720.91 139.067 1724.51 140.267 1728.51 142.4C1735.45 145.867 1738.91 156.133 1738.91 173.2C1738.91 190 1735.31 200.267 1728.11 204C1724.11 205.867 1720.51 207.067 1717.31 207.6C1714.38 207.867 1709.85 208 1703.71 208Z" fill="#fff"/>
<path d="M579.024 396.645C580.494 397.665 581.229 398.655 581.229 399.615C581.229 400.185 580.884 400.98 580.194 402L570.474 416.535V425.13C570.474 425.82 570.444 426.345 570.384 426.705C570.354 427.035 570.219 427.425 569.979 427.875C569.739 428.325 569.334 428.64 568.764 428.82C568.194 429 567.429 429.09 566.469 429.09C565.509 429.09 564.744 429 564.174 428.82C563.604 428.64 563.199 428.325 562.959 427.875C562.719 427.395 562.569 426.99 562.509 426.66C562.479 426.3 562.464 425.76 562.464 425.04V416.535L552.744 402C552.054 400.98 551.709 400.185 551.709 399.615C551.709 398.655 552.369 397.74 553.689 396.87C555.009 395.97 555.954 395.52 556.524 395.52C557.094 395.52 557.544 395.64 557.874 395.88C558.384 396.21 558.924 396.825 559.494 397.725L566.469 408.885L573.444 397.725C574.014 396.825 574.509 396.24 574.929 395.97C575.349 395.67 575.829 395.52 576.369 395.52C576.939 395.52 577.824 395.895 579.024 396.645ZM629.763 395.61C634.203 395.61 638.058 397.215 641.328 400.425C644.598 403.635 646.233 407.625 646.233 412.395C646.233 417.135 644.673 421.185 641.553 424.545C638.433 427.875 634.593 429.54 630.033 429.54C625.473 429.54 621.588 427.89 618.378 424.59C615.198 421.29 613.608 417.36 613.608 412.8C613.608 410.31 614.058 407.985 614.958 405.825C615.858 403.635 617.058 401.805 618.558 400.335C620.058 398.865 621.783 397.71 623.733 396.87C625.683 396.03 627.693 395.61 629.763 395.61ZM621.573 412.575C621.573 415.245 622.428 417.42 624.138 419.1C625.878 420.75 627.813 421.575 629.943 421.575C632.073 421.575 633.993 420.765 635.703 419.145C637.413 417.525 638.268 415.35 638.268 412.62C638.268 409.89 637.398 407.7 635.658 406.05C633.948 404.4 632.028 403.575 629.898 403.575C627.768 403.575 625.848 404.415 624.138 406.095C622.428 407.745 621.573 409.905 621.573 412.575ZM701.331 397.23C701.631 396.75 702.066 396.42 702.636 396.24C703.206 396.06 703.911 395.97 704.751 395.97C705.621 395.97 706.311 396.045 706.821 396.195C707.331 396.345 707.721 396.525 707.991 396.735C708.261 396.945 708.456 397.26 708.576 397.68C708.756 398.19 708.846 398.97 708.846 400.02V413.61C708.846 417.57 707.616 421.17 705.156 424.41C703.956 425.94 702.411 427.185 700.521 428.145C698.631 429.075 696.531 429.54 694.221 429.54C691.941 429.54 689.856 429.06 687.966 428.1C686.106 427.14 684.591 425.88 683.421 424.32C680.991 421.14 679.776 417.54 679.776 413.52V399.975C679.776 399.255 679.791 398.73 679.821 398.4C679.881 398.04 680.031 397.635 680.271 397.185C680.511 396.735 680.916 396.42 681.486 396.24C682.056 396.06 682.821 395.97 683.781 395.97C684.741 395.97 685.506 396.06 686.076 396.24C686.646 396.42 687.036 396.735 687.246 397.185C687.606 397.875 687.786 398.82 687.786 400.02V413.52C687.786 415.35 688.236 417.09 689.136 418.74C689.586 419.58 690.261 420.255 691.161 420.765C692.061 421.275 693.126 421.53 694.356 421.53C696.546 421.53 698.181 420.72 699.261 419.1C700.341 417.48 700.881 415.605 700.881 413.475V399.705C700.881 398.535 701.031 397.71 701.331 397.23ZM768.272 423.42C768.722 424.5 768.947 425.28 768.947 425.76C768.947 426.9 768.017 427.86 766.157 428.64C765.197 429.06 764.417 429.27 763.817 429.27C763.247 429.27 762.767 429.135 762.377 428.865C762.017 428.565 761.747 428.265 761.567 427.965C761.267 427.395 760.097 424.68 758.057 419.82L756.662 419.91H750.992V424.995C750.992 425.685 750.962 426.21 750.902 426.57C750.872 426.9 750.737 427.29 750.497 427.74C750.077 428.55 748.907 428.955 746.987 428.955C744.887 428.955 743.657 428.4 743.297 427.29C743.117 426.78 743.027 426 743.027 424.95V399.975C743.027 399.285 743.042 398.775 743.072 398.445C743.132 398.085 743.282 397.68 743.522 397.23C743.942 396.42 745.112 396.015 747.032 396.015H756.752C759.392 396.015 761.957 396.975 764.447 398.895C765.647 399.825 766.637 401.085 767.417 402.675C768.197 404.265 768.587 406.035 768.587 407.985C768.587 411.375 767.462 414.165 765.212 416.355C765.872 417.945 766.892 420.3 768.272 423.42ZM750.992 411.945H756.752C757.622 411.945 758.492 411.615 759.362 410.955C760.232 410.295 760.667 409.305 760.667 407.985C760.667 406.665 760.232 405.675 759.362 405.015C758.492 404.325 757.592 403.98 756.662 403.98H750.992V411.945ZM865.283 397.41C865.583 396.87 866.018 396.51 866.588 396.33C867.158 396.15 867.863 396.06 868.703 396.06C869.573 396.06 870.263 396.135 870.773 396.285C871.313 396.435 871.703 396.615 871.943 396.825C872.213 397.035 872.408 397.35 872.528 397.77C872.708 398.25 872.798 399.015 872.798 400.065V425.04C872.798 425.76 872.768 426.285 872.708 426.615C872.678 426.945 872.543 427.335 872.303 427.785C871.883 428.595 870.713 429 868.793 429C867.623 429 866.813 428.91 866.363 428.73C865.913 428.55 865.538 428.265 865.238 427.875C858.488 418.875 854.048 412.995 851.918 410.235V425.04C851.918 425.76 851.888 426.285 851.828 426.615C851.798 426.945 851.663 427.335 851.423 427.785C851.003 428.595 849.833 429 847.913 429C846.053 429 844.913 428.595 844.493 427.785C844.253 427.335 844.103 426.93 844.043 426.57C844.013 426.21 843.998 425.685 843.998 424.995V399.885C843.998 398.745 844.133 397.92 844.403 397.41C844.703 396.87 845.138 396.51 845.708 396.33C846.278 396.15 847.013 396.06 847.913 396.06C848.813 396.06 849.518 396.15 850.028 396.33C850.568 396.48 850.943 396.66 851.153 396.87C851.273 396.96 851.618 397.35 852.188 398.04C858.518 406.65 862.748 412.335 864.878 415.095V399.885C864.878 398.745 865.013 397.92 865.283 397.41ZM914.95 421.035H928.81C929.5 421.035 930.01 421.065 930.34 421.125C930.7 421.155 931.105 421.29 931.555 421.53C932.365 421.95 932.77 423.12 932.77 425.04C932.77 427.14 932.215 428.37 931.105 428.73C930.595 428.91 929.815 429 928.765 429H910.945C908.845 429 907.615 428.43 907.255 427.29C907.075 426.81 906.985 426.045 906.985 424.995V399.975C906.985 398.445 907.27 397.41 907.84 396.87C908.41 396.3 909.49 396.015 911.08 396.015H928.81C929.5 396.015 930.01 396.045 930.34 396.105C930.7 396.135 931.105 396.27 931.555 396.51C932.365 396.93 932.77 398.1 932.77 400.02C932.77 402.12 932.215 403.35 931.105 403.71C930.595 403.89 929.815 403.98 928.765 403.98H914.95V408.525H923.86C924.55 408.525 925.06 408.555 925.39 408.615C925.75 408.645 926.155 408.78 926.605 409.02C927.415 409.44 927.82 410.61 927.82 412.53C927.82 414.63 927.25 415.86 926.11 416.22C925.6 416.4 924.82 416.49 923.77 416.49H914.95V421.035ZM1005.75 396.195C1007.76 396.915 1008.76 397.875 1008.76 399.075C1008.76 399.465 1008.58 400.2 1008.22 401.28L999.582 426.255C999.522 426.465 999.417 426.72 999.267 427.02C999.117 427.32 998.712 427.725 998.052 428.235C997.422 428.715 996.657 428.955 995.757 428.955C994.887 428.955 994.122 428.715 993.462 428.235C992.832 427.725 992.412 427.23 992.202 426.75L986.937 411.225C983.607 421.065 981.912 426.075 981.852 426.255C981.792 426.435 981.657 426.69 981.447 427.02C981.237 427.35 980.997 427.65 980.727 427.92C980.037 428.61 979.212 428.955 978.252 428.955C977.292 428.955 976.497 428.73 975.867 428.28C975.267 427.83 974.862 427.38 974.652 426.93L974.337 426.255L965.652 401.28C965.322 400.29 965.157 399.555 965.157 399.075C965.157 397.875 966.162 396.93 968.172 396.24C969.042 395.94 969.822 395.79 970.512 395.79C971.232 395.79 971.772 396.03 972.132 396.51C972.522 396.99 972.867 397.725 973.167 398.715L978.117 413.745L983.022 398.94C983.442 397.68 984.207 396.81 985.317 396.33C985.797 396.12 986.412 396.015 987.162 396.015C987.942 396.015 988.662 396.27 989.322 396.78C989.982 397.26 990.402 397.74 990.582 398.22L995.757 413.835L1000.71 398.715C1000.95 398.025 1001.14 397.515 1001.29 397.185C1001.44 396.855 1001.71 396.54 1002.1 396.24C1002.52 395.91 1003.03 395.745 1003.63 395.745C1004.23 395.745 1004.94 395.895 1005.75 396.195Z" fill="#fff"/>
<path d="M1175.75 421.035H1189.61C1190.3 421.035 1190.81 421.065 1191.14 421.125C1191.5 421.155 1191.9 421.29 1192.35 421.53C1193.16 421.95 1193.57 423.12 1193.57 425.04C1193.57 427.14 1193.01 428.37 1191.9 428.73C1191.39 428.91 1190.61 429 1189.56 429H1171.74C1169.64 429 1168.41 428.43 1168.05 427.29C1167.87 426.81 1167.78 426.045 1167.78 424.995V399.975C1167.78 398.445 1168.07 397.41 1168.64 396.87C1169.21 396.3 1170.29 396.015 1171.88 396.015H1189.61C1190.3 396.015 1190.81 396.045 1191.14 396.105C1191.5 396.135 1191.9 396.27 1192.35 396.51C1193.16 396.93 1193.57 398.1 1193.57 400.02C1193.57 402.12 1193.01 403.35 1191.9 403.71C1191.39 403.89 1190.61 403.98 1189.56 403.98H1175.75V408.525H1184.66C1185.35 408.525 1185.86 408.555 1186.19 408.615C1186.55 408.645 1186.95 408.78 1187.4 409.02C1188.21 409.44 1188.62 410.61 1188.62 412.53C1188.62 414.63 1188.05 415.86 1186.91 416.22C1186.4 416.4 1185.62 416.49 1184.57 416.49H1175.75V421.035ZM1252.32 423.42C1252.77 424.5 1253 425.28 1253 425.76C1253 426.9 1252.07 427.86 1250.21 428.64C1249.25 429.06 1248.47 429.27 1247.87 429.27C1247.3 429.27 1246.82 429.135 1246.43 428.865C1246.07 428.565 1245.8 428.265 1245.62 427.965C1245.32 427.395 1244.15 424.68 1242.11 419.82L1240.71 419.91H1235.04V424.995C1235.04 425.685 1235.01 426.21 1234.95 426.57C1234.92 426.9 1234.79 427.29 1234.55 427.74C1234.13 428.55 1232.96 428.955 1231.04 428.955C1228.94 428.955 1227.71 428.4 1227.35 427.29C1227.17 426.78 1227.08 426 1227.08 424.95V399.975C1227.08 399.285 1227.09 398.775 1227.12 398.445C1227.18 398.085 1227.33 397.68 1227.57 397.23C1227.99 396.42 1229.16 396.015 1231.08 396.015H1240.8C1243.44 396.015 1246.01 396.975 1248.5 398.895C1249.7 399.825 1250.69 401.085 1251.47 402.675C1252.25 404.265 1252.64 406.035 1252.64 407.985C1252.64 411.375 1251.51 414.165 1249.26 416.355C1249.92 417.945 1250.94 420.3 1252.32 423.42ZM1235.04 411.945H1240.8C1241.67 411.945 1242.54 411.615 1243.41 410.955C1244.28 410.295 1244.72 409.305 1244.72 407.985C1244.72 406.665 1244.28 405.675 1243.41 405.015C1242.54 404.325 1241.64 403.98 1240.71 403.98H1235.04V411.945ZM1286.12 424.365C1285.34 423.405 1284.95 422.55 1284.95 421.8C1284.95 421.02 1285.6 420 1286.89 418.74C1287.64 418.02 1288.43 417.66 1289.27 417.66C1290.11 417.66 1291.28 418.41 1292.78 419.91C1293.2 420.42 1293.8 420.915 1294.58 421.395C1295.36 421.845 1296.08 422.07 1296.74 422.07C1299.53 422.07 1300.93 420.93 1300.93 418.65C1300.93 417.96 1300.54 417.39 1299.76 416.94C1299.01 416.46 1298.06 416.115 1296.92 415.905C1295.78 415.695 1294.55 415.365 1293.23 414.915C1291.91 414.435 1290.68 413.88 1289.54 413.25C1288.4 412.62 1287.44 411.63 1286.66 410.28C1285.91 408.9 1285.54 407.25 1285.54 405.33C1285.54 402.69 1286.51 400.395 1288.46 398.445C1290.44 396.465 1293.13 395.475 1296.52 395.475C1298.32 395.475 1299.95 395.715 1301.42 396.195C1302.92 396.645 1303.96 397.11 1304.53 397.59L1305.65 398.445C1306.58 399.315 1307.05 400.05 1307.05 400.65C1307.05 401.25 1306.69 402.075 1305.97 403.125C1304.95 404.625 1303.9 405.375 1302.82 405.375C1302.19 405.375 1301.41 405.075 1300.48 404.475C1300.39 404.415 1300.21 404.265 1299.94 404.025C1299.7 403.785 1299.47 403.59 1299.26 403.44C1298.63 403.05 1297.82 402.855 1296.83 402.855C1295.87 402.855 1295.06 403.095 1294.4 403.575C1293.77 404.025 1293.46 404.67 1293.46 405.51C1293.46 406.32 1293.83 406.98 1294.58 407.49C1295.36 408 1296.32 408.345 1297.46 408.525C1298.6 408.705 1299.85 408.99 1301.2 409.38C1302.55 409.74 1303.79 410.19 1304.93 410.73C1306.07 411.27 1307.02 412.215 1307.77 413.565C1308.55 414.885 1308.94 416.52 1308.94 418.47C1308.94 420.42 1308.55 422.145 1307.77 423.645C1306.99 425.115 1305.97 426.255 1304.71 427.065C1302.28 428.655 1299.68 429.45 1296.92 429.45C1295.51 429.45 1294.18 429.285 1292.92 428.955C1291.66 428.595 1290.64 428.16 1289.86 427.65C1288.27 426.69 1287.16 425.76 1286.53 424.86L1286.12 424.365ZM1366.81 402.675C1367.59 404.265 1367.98 406.035 1367.98 407.985C1367.98 409.935 1367.59 411.705 1366.81 413.295C1366.03 414.855 1365.02 416.1 1363.79 417.03C1361.3 418.95 1358.72 419.91 1356.05 419.91H1350.43V424.995C1350.43 425.685 1350.4 426.21 1350.34 426.57C1350.31 426.9 1350.17 427.29 1349.93 427.74C1349.51 428.55 1348.34 428.955 1346.42 428.955C1344.32 428.955 1343.09 428.4 1342.73 427.29C1342.55 426.78 1342.46 426 1342.46 424.95V399.975C1342.46 399.285 1342.48 398.775 1342.51 398.445C1342.57 398.085 1342.72 397.68 1342.96 397.23C1343.38 396.42 1344.55 396.015 1346.47 396.015H1356.1C1358.74 396.015 1361.3 396.975 1363.79 398.895C1365.02 399.825 1366.03 401.085 1366.81 402.675ZM1356.1 411.945C1357 411.945 1357.88 411.615 1358.75 410.955C1359.62 410.295 1360.06 409.305 1360.06 407.985C1360.06 406.665 1359.62 405.675 1358.75 405.015C1357.88 404.325 1356.98 403.98 1356.05 403.98H1350.43V411.945H1356.1ZM1409.46 421.035H1423.32C1424.01 421.035 1424.52 421.065 1424.85 421.125C1425.21 421.155 1425.62 421.29 1426.07 421.53C1426.88 421.95 1427.28 423.12 1427.28 425.04C1427.28 427.14 1426.73 428.37 1425.62 428.73C1425.11 428.91 1424.33 429 1423.28 429H1405.46C1403.36 429 1402.13 428.43 1401.77 427.29C1401.59 426.81 1401.5 426.045 1401.5 424.995V399.975C1401.5 398.445 1401.78 397.41 1402.35 396.87C1402.92 396.3 1404 396.015 1405.59 396.015H1423.32C1424.01 396.015 1424.52 396.045 1424.85 396.105C1425.21 396.135 1425.62 396.27 1426.07 396.51C1426.88 396.93 1427.28 398.1 1427.28 400.02C1427.28 402.12 1426.73 403.35 1425.62 403.71C1425.11 403.89 1424.33 403.98 1423.28 403.98H1409.46V408.525H1418.37C1419.06 408.525 1419.57 408.555 1419.9 408.615C1420.26 408.645 1420.67 408.78 1421.12 409.02C1421.93 409.44 1422.33 410.61 1422.33 412.53C1422.33 414.63 1421.76 415.86 1420.62 416.22C1420.11 416.4 1419.33 416.49 1418.28 416.49H1409.46V421.035ZM1481.4 420.36L1482.21 419.775C1483.23 419.175 1483.95 418.875 1484.37 418.875C1485.3 418.875 1486.31 419.715 1487.39 421.395C1488.05 422.445 1488.38 423.285 1488.38 423.915C1488.38 424.545 1488.17 425.07 1487.75 425.49C1487.36 425.91 1486.89 426.285 1486.35 426.615C1485.81 426.945 1485.29 427.26 1484.78 427.56C1484.3 427.86 1483.29 428.25 1481.76 428.73C1480.23 429.21 1478.75 429.45 1477.31 429.45C1475.9 429.45 1474.46 429.27 1472.99 428.91C1471.55 428.52 1470.05 427.89 1468.49 427.02C1466.96 426.12 1465.58 425.04 1464.35 423.78C1463.12 422.49 1462.1 420.855 1461.29 418.875C1460.51 416.865 1460.12 414.69 1460.12 412.35C1460.12 410.01 1460.51 407.895 1461.29 406.005C1462.07 404.085 1463.06 402.51 1464.26 401.28C1465.49 400.02 1466.88 398.97 1468.44 398.13C1471.38 396.51 1474.34 395.7 1477.31 395.7C1478.72 395.7 1480.14 395.925 1481.58 396.375C1483.05 396.795 1484.16 397.23 1484.91 397.68L1485.99 398.31C1486.53 398.64 1486.95 398.91 1487.25 399.12C1488.03 399.75 1488.42 400.47 1488.42 401.28C1488.42 402.06 1488.11 402.885 1487.48 403.755C1486.31 405.375 1485.26 406.185 1484.33 406.185C1483.79 406.185 1483.02 405.855 1482.03 405.195C1480.77 404.175 1479.09 403.665 1476.99 403.665C1475.04 403.665 1473.12 404.34 1471.23 405.69C1470.33 406.35 1469.58 407.28 1468.98 408.48C1468.38 409.68 1468.08 411.045 1468.08 412.575C1468.08 414.075 1468.38 415.425 1468.98 416.625C1469.58 417.825 1470.35 418.77 1471.28 419.46C1473.11 420.78 1475.01 421.44 1476.99 421.44C1477.92 421.44 1478.79 421.32 1479.6 421.08C1480.44 420.84 1481.04 420.6 1481.4 420.36ZM1524.1 395.97H1549.12C1550.08 395.97 1550.78 396.09 1551.23 396.33C1551.68 396.54 1551.98 396.885 1552.13 397.365C1552.28 397.845 1552.36 398.475 1552.36 399.255C1552.36 400.035 1552.28 400.665 1552.13 401.145C1551.98 401.595 1551.73 401.91 1551.37 402.09C1550.83 402.36 1550.06 402.495 1549.07 402.495H1540.48V425.13C1540.48 425.82 1540.45 426.33 1540.39 426.66C1540.36 426.99 1540.22 427.38 1539.98 427.83C1539.77 428.25 1539.38 428.55 1538.81 428.73C1538.24 428.91 1537.49 429 1536.56 429C1535.63 429 1534.88 428.91 1534.31 428.73C1533.77 428.55 1533.38 428.25 1533.14 427.83C1532.93 427.38 1532.8 426.99 1532.74 426.66C1532.71 426.3 1532.69 425.775 1532.69 425.085V402.495H1524.05C1523.09 402.495 1522.39 402.39 1521.94 402.18C1521.49 401.94 1521.19 401.58 1521.04 401.1C1520.89 400.62 1520.81 399.99 1520.81 399.21C1520.81 398.43 1520.89 397.815 1521.04 397.365C1521.19 396.885 1521.44 396.555 1521.8 396.375C1522.34 396.105 1523.11 395.97 1524.1 395.97ZM1585.45 399.975C1585.45 399.285 1585.47 398.775 1585.5 398.445C1585.56 398.085 1585.71 397.68 1585.95 397.23C1586.37 396.42 1587.54 396.015 1589.46 396.015C1591.56 396.015 1592.8 396.57 1593.19 397.68C1593.34 398.19 1593.42 398.97 1593.42 400.02V425.04C1593.42 425.76 1593.39 426.285 1593.33 426.615C1593.3 426.945 1593.16 427.335 1592.92 427.785C1592.5 428.595 1591.33 429 1589.41 429C1587.31 429 1586.08 428.43 1585.72 427.29C1585.54 426.81 1585.45 426.045 1585.45 424.995V399.975ZM1657.71 396.51C1659.48 397.38 1660.37 398.34 1660.37 399.39C1660.37 399.87 1660.14 400.59 1659.69 401.55L1647.27 426.75C1646.94 427.41 1646.43 427.95 1645.74 428.37C1645.08 428.76 1644.39 428.955 1643.67 428.955H1643.22C1642.47 428.955 1641.75 428.76 1641.06 428.37C1640.4 427.95 1639.91 427.41 1639.58 426.75L1627.16 401.55C1626.71 400.59 1626.48 399.87 1626.48 399.39C1626.48 398.34 1627.37 397.38 1629.14 396.51C1630.13 396 1630.88 395.745 1631.39 395.745C1631.93 395.745 1632.33 395.805 1632.6 395.925C1632.87 396.045 1633.13 396.255 1633.37 396.555C1633.64 396.915 1633.88 397.32 1634.09 397.77C1634.33 398.19 1634.91 399.435 1635.84 401.505C1636.77 403.545 1637.76 405.72 1638.81 408.03C1639.89 410.34 1640.9 412.53 1641.83 414.6C1642.79 416.64 1643.33 417.78 1643.45 418.02L1652.45 398.31C1652.69 397.74 1652.9 397.29 1653.08 396.96C1653.62 396.15 1654.28 395.745 1655.06 395.745C1655.84 395.745 1656.72 396 1657.71 396.51ZM1701.42 421.035H1715.28C1715.97 421.035 1716.48 421.065 1716.81 421.125C1717.17 421.155 1717.57 421.29 1718.02 421.53C1718.83 421.95 1719.24 423.12 1719.24 425.04C1719.24 427.14 1718.68 428.37 1717.57 428.73C1717.06 428.91 1716.28 429 1715.23 429H1697.41C1695.31 429 1694.08 428.43 1693.72 427.29C1693.54 426.81 1693.45 426.045 1693.45 424.995V399.975C1693.45 398.445 1693.74 397.41 1694.31 396.87C1694.88 396.3 1695.96 396.015 1697.55 396.015H1715.28C1715.97 396.015 1716.48 396.045 1716.81 396.105C1717.17 396.135 1717.57 396.27 1718.02 396.51C1718.83 396.93 1719.24 398.1 1719.24 400.02C1719.24 402.12 1718.68 403.35 1717.57 403.71C1717.06 403.89 1716.28 403.98 1715.23 403.98H1701.42V408.525H1710.33C1711.02 408.525 1711.53 408.555 1711.86 408.615C1712.22 408.645 1712.62 408.78 1713.07 409.02C1713.88 409.44 1714.29 410.61 1714.29 412.53C1714.29 414.63 1713.72 415.86 1712.58 416.22C1712.07 416.4 1711.29 416.49 1710.24 416.49H1701.42V421.035Z" fill="#0097B2"/>
</svg>
