<svg width="100%" height="100%" viewBox="0 0 31 31" version="1.1" xmlns="http://www.w3.org/2000/svg" xmlns:xlink="http://www.w3.org/1999/xlink" xml:space="preserve" xmlns:serif="http://www.serif.com/" style="fill-rule:evenodd;clip-rule:evenodd;stroke-linejoin:round;stroke-miterlimit:2;"><path d="M3.618,16.96c-1.365,0 -2.201,-0.866 -2.201,-2.436c-0,-2.099 1.162,-3.802 2.334,-3.802c0.499,0 0.836,0.316 0.836,0.857c-0,1.141 -0.765,1.447 -0.765,1.447c0,-0 0.163,0.346 0.663,0.346c0.632,0 1.243,-0.519 1.243,-1.477c0,-0.908 -0.672,-1.733 -1.947,-1.733c-2.109,-0 -3.781,1.794 -3.781,4.474c-0,1.978 1.335,3.17 3.078,3.17c1.794,0 3.058,-1.019 3.18,-1.549c0.021,-0.133 -0.01,-0.224 -0.173,-0.224c-0.469,0.509 -1.356,0.927 -2.467,0.927Z" style="fill-rule:nonzero;"/><path d="M5.952,15.564c-0.071,0.408 -0.091,0.764 -0.091,0.968c-0,0.816 0.489,1.274 1.192,1.274c0.989,0 1.784,-0.968 1.886,-1.508c0.03,-0.184 -0.061,-0.265 -0.194,-0.265c-0.265,0.55 -0.723,0.886 -1.131,0.886c-0.367,0 -0.54,-0.295 -0.438,-0.896l0.998,-5.668c0.123,-0.713 0.031,-1.009 -0.754,-1.009c-0.377,0 -0.53,0.092 -0.53,0.092c0,0 0.102,0.235 -0.01,0.877l-0.928,5.249Z" style="fill-rule:nonzero;"/><path d="M13.352,13.546c0.102,-0.551 0.235,-0.734 0.235,-0.734c-0,-0 -0.163,-0.102 -0.51,-0.102c-0.499,-0 -0.754,0.132 -0.917,0.499c-0.235,-0.295 -0.591,-0.499 -1.101,-0.499c-1.193,-0 -2.518,1.07 -2.518,3.343c0,1.193 0.663,1.753 1.499,1.753c0.581,0 1.141,-0.397 1.559,-1.152c0.051,0.734 0.52,1.152 1.193,1.152c0.988,0 1.722,-0.968 1.824,-1.508c0.031,-0.184 -0.061,-0.265 -0.194,-0.265c-0.265,0.55 -0.723,0.886 -1.07,0.886c-0.367,0 -0.55,-0.285 -0.438,-0.896l0.438,-2.477Zm-2.905,3.373c-0.377,0 -0.601,-0.275 -0.601,-0.846c0,-1.641 0.785,-2.67 1.478,-2.67c0.387,0 0.581,0.285 0.673,0.489l-0.092,0.479c-0.194,1.02 -0.734,2.548 -1.458,2.548Z" style="fill-rule:nonzero;"/><path d="M16.114,13.719c0.123,-0.724 0.031,-1.009 -0.754,-1.009c-0.377,-0 -0.53,0.092 -0.53,0.092c0,-0 0.102,0.234 -0.01,0.876l-1.162,6.687c-0.122,0.713 -0.031,1.009 0.754,1.009c0.377,-0 0.53,-0.092 0.53,-0.092c0,-0 -0.102,-0.235 0.011,-0.877l0.54,-3.098c0.285,0.306 0.693,0.499 1.182,0.499c0.989,0 1.926,-0.764 2.324,-2.038c0.836,-0.082 1.498,-0.653 1.559,-1.009c0.021,-0.153 -0.051,-0.255 -0.183,-0.255c-0,-0 -0.479,0.703 -1.264,0.795c0.051,-0.265 0.082,-0.551 0.082,-0.856c-0,-1.06 -0.52,-1.733 -1.468,-1.733c-0.642,-0 -1.213,0.418 -1.641,1.192l0.03,-0.183Zm1.244,0.968c-0,0.337 0.132,0.612 0.377,0.806c-0.255,0.968 -0.805,1.62 -1.366,1.62c-0.407,0 -0.642,-0.224 -0.774,-0.438l0.071,-0.387c0.183,-0.928 0.469,-1.529 0.754,-1.988c0.347,-0.55 0.642,-0.805 0.948,-0.805c0.265,-0 0.438,0.153 0.5,0.499c-0.327,0.072 -0.51,0.357 -0.51,0.693Z" style="fill-rule:nonzero;"/><path d="M21.832,14.504c-0.336,-0.173 -0.499,-0.347 -0.499,-0.642c0,-0.357 0.275,-0.642 0.836,-0.642c0.571,-0 0.866,0.387 0.866,0.866c0,0.183 -0.051,0.296 -0.051,0.296c0,-0 0.143,0.142 0.489,0.142c0.357,0 0.673,-0.224 0.673,-0.611c0,-0.53 -0.591,-1.203 -1.855,-1.203c-1.447,-0 -2.161,0.673 -2.161,1.498c0,0.683 0.398,1.009 0.887,1.274l0.999,0.53c0.367,0.194 0.499,0.398 0.499,0.642c0,0.337 -0.275,0.643 -0.856,0.643c-0.581,-0.011 -0.846,-0.367 -0.846,-0.867c0,-0.183 0.051,-0.295 0.051,-0.295c0,-0 -0.142,-0.143 -0.489,-0.143c-0.357,-0 -0.673,0.224 -0.673,0.611c0,0.531 0.551,1.203 1.855,1.203c1.478,0 2.161,-0.693 2.161,-1.498c0,-0.54 -0.265,-0.958 -1.009,-1.346l-0.877,-0.458Z" style="fill-rule:nonzero;"/><path d="M24.748,15.564c-0.072,0.408 -0.092,0.764 -0.092,0.968c-0,0.816 0.489,1.274 1.192,1.274c0.989,0 1.723,-0.968 1.825,-1.508c0.03,-0.184 -0.061,-0.265 -0.194,-0.265c-0.265,0.55 -0.723,0.886 -1.07,0.886c-0.367,0 -0.54,-0.285 -0.438,-0.896l0.397,-2.304c0.123,-0.713 0.031,-1.009 -0.754,-1.009c-0.377,-0 -0.53,0.092 -0.53,0.092c-0,-0 0.102,0.224 -0.01,0.876l-0.326,1.886Zm0.682,-4.383c0,0.357 0.245,0.612 0.612,0.612c0.449,-0 0.734,-0.347 0.734,-0.704c-0,-0.367 -0.245,-0.642 -0.632,-0.642c-0.387,0 -0.714,0.316 -0.714,0.734Z" style="fill:#0097b2;fill-rule:nonzero;"/><path d="M27.52,12.71c-0.224,-0 -0.347,0.122 -0.347,0.296c0,0.132 0.072,0.214 0.072,0.214l0.662,-0l-0.377,2.15c-0.092,0.52 -0.112,0.856 -0.112,1.091c0,0.815 0.591,1.345 1.345,1.345c0.969,0 1.794,-0.887 1.947,-1.508c0.041,-0.174 -0.051,-0.265 -0.183,-0.265c-0.224,0.428 -0.642,0.886 -1.223,0.886c-0.479,0 -0.683,-0.336 -0.581,-0.896l0.489,-2.803l0.826,-0c0.224,-0 0.346,-0.123 0.346,-0.296c0,-0.133 -0.071,-0.214 -0.071,-0.214l-1.009,-0l0.091,-0.51c0.133,-0.713 0.031,-1.009 -0.754,-1.009c-0.377,0 -0.53,0.092 -0.53,0.092c0,-0 0.112,0.234 -0.01,0.877l-0.102,0.55l-0.479,-0Z" style="fill:#0097b2;fill-rule:nonzero;"/></svg>