<svg width="1286" height="896" viewBox="0 0 1286 896" fill="none" xmlns="http://www.w3.org/2000/svg">
<rect x="444" y="1" width="398" height="398" rx="79" fill="#FFF" stroke="#BDBDBD" stroke-width="2"/>
<path d="M643 137H706V200C706 234.794 677.794 263 643 263C608.206 263 580 234.794 580 200C580 165.206 608.206 137 643 137Z" fill="#0097B2" stroke="#0097B2" stroke-width="74"/>
<rect x="655" y="112" width="76" height="76" rx="38" fill="#FFF" stroke="#0097B2" stroke-width="24"/>
<path d="M82.0625 698.8C82.0625 710 85.7958 718.8 93.2625 725.2C100.729 731.333 108.596 734.4 116.863 734.4C125.396 734.4 133.263 732 140.463 727.2C147.929 722.133 153.929 719.6 158.463 719.6C166.463 719.6 176.196 726.667 187.663 740.8C193.796 748.533 196.863 755.467 196.863 761.6C196.863 771.733 189.529 781.2 174.863 790C159.663 800.667 140.996 806 118.863 806C94.0625 806 70.1958 797.067 47.2625 779.2C36.3292 770.667 27.3958 759.333 20.4625 745.2C13.5292 730.8 10.0625 715.067 10.0625 698C10.0625 680.667 13.5292 665.067 20.4625 651.2C27.3958 637.067 36.3292 625.733 47.2625 617.2C69.3958 599.6 92.9958 590.8 118.063 590.8C128.196 590.8 138.063 592.267 147.663 595.2C157.263 597.867 164.329 600.533 168.863 603.2L175.263 607.2C180.063 610.4 183.796 612.933 186.463 614.8C193.396 620.133 196.863 626.267 196.863 633.2C196.863 639.867 194.063 647.467 188.463 656C178.863 670.667 169.663 678 160.863 678C155.796 678 148.596 675.067 139.263 669.2C134.463 664.667 127.529 662.4 118.463 662.4C109.663 662.4 101.396 665.6 93.6625 672C85.9292 678.4 82.0625 687.333 82.0625 698.8ZM222.703 529.2C222.703 523.067 222.836 518.533 223.103 515.6C223.636 512.4 224.836 508.8 226.703 504.8C230.436 497.6 240.836 494 257.903 494C274.17 494 284.303 497.6 288.303 504.8C290.436 508.8 291.636 512.4 291.903 515.6C292.436 518.8 292.703 523.467 292.703 529.6V714.8C292.703 724.4 293.503 730.533 295.103 733.2C296.703 735.6 300.17 736.8 305.503 736.8C311.103 736.8 314.836 737.067 316.703 737.6C318.57 737.867 320.836 738.933 323.503 740.8C328.836 744.267 331.503 753.733 331.503 769.2C331.503 786 328.836 796.267 323.503 800C316.57 804.8 300.036 805.6 273.903 802.4C253.37 799.733 240.036 792.933 233.903 782C226.436 768.933 222.703 748.133 222.703 719.6V529.2ZM490.363 615.6C491.963 600.667 502.496 593.2 521.963 593.2C532.363 593.2 540.096 594 545.163 595.6C550.229 597.2 553.696 600 555.563 604C557.696 608 558.896 611.6 559.163 614.8C559.696 617.733 559.963 622.267 559.963 628.4V768.4C559.963 774.533 559.696 779.2 559.163 782.4C558.896 785.333 557.829 788.8 555.963 792.8C552.229 799.733 543.029 803.2 528.363 803.2C513.963 803.2 504.229 801.467 499.163 798C494.363 794.267 491.563 788.933 490.763 782C480.896 796.133 464.363 803.2 441.163 803.2C418.229 803.2 396.896 792.667 377.163 771.6C357.429 750.533 347.563 726.133 347.563 698.4C347.563 670.4 357.429 646 377.163 625.2C397.163 604.133 419.029 593.6 442.763 593.6C451.829 593.6 460.096 595.2 467.563 598.4C475.029 601.6 480.229 604.667 483.163 607.6C486.096 610.267 488.496 612.933 490.363 615.6ZM417.563 698.8C417.563 707.6 421.029 715.6 427.963 722.8C434.896 729.733 443.296 733.2 453.163 733.2C463.029 733.2 471.163 729.6 477.563 722.4C484.229 715.2 487.563 707.333 487.563 698.8C487.563 690 484.363 681.867 477.963 674.4C471.829 666.933 463.429 663.2 452.763 663.2C442.363 663.2 433.829 666.933 427.163 674.4C420.763 681.867 417.563 690 417.563 698.8ZM591.844 861.2V627.6C591.844 621.467 591.977 616.933 592.244 614C592.777 611.067 593.977 607.733 595.844 604C599.577 596.8 608.51 593.2 622.644 593.2C636.777 593.2 646.244 595.067 651.044 598.8C656.11 602.267 659.044 607.467 659.844 614.4C669.977 600.533 685.844 593.6 707.444 593.6C729.31 593.6 749.977 603.867 769.444 624.4C788.91 644.933 798.644 668.8 798.644 696C798.644 723.2 788.91 747.067 769.444 767.6C750.244 788.133 729.71 798.4 707.844 798.4C685.977 798.4 670.11 792.267 660.244 780V860.8C660.244 866.933 659.977 871.467 659.444 874.4C659.177 877.333 657.977 880.667 655.844 884.4C653.977 888.4 650.644 891.2 645.844 892.8C641.044 894.4 634.51 895.2 626.244 895.2C617.977 895.2 611.31 894.4 606.244 892.8C601.444 891.2 597.977 888.533 595.844 884.8C593.977 881.067 592.777 877.733 592.244 874.8C591.977 871.867 591.844 867.333 591.844 861.2ZM671.044 672.8C664.91 680 661.844 687.867 661.844 696.4C661.844 704.933 664.91 712.8 671.044 720C677.444 726.933 685.444 730.4 695.044 730.4C704.91 730.4 713.177 726.933 719.844 720C726.777 713.067 730.244 705.2 730.244 696.4C730.244 687.6 727.044 679.733 720.644 672.8C714.244 665.6 705.844 662 695.444 662C685.31 662 677.177 665.6 671.044 672.8ZM826.256 785.2C821.19 782 818.656 776.933 818.656 770C818.656 763.067 823.723 752.533 833.856 738.4C836.79 733.867 841.456 731.6 847.856 731.6C854.523 731.6 863.456 734.933 874.656 741.6C885.856 748 895.99 751.2 905.056 751.2C921.323 751.2 929.456 748 929.456 741.6C929.456 736.533 920.523 732.8 902.656 730.4C885.856 728 869.19 721.733 852.656 711.6C844.923 706.8 838.523 699.333 833.456 689.2C828.39 678.8 825.856 666.533 825.856 652.4C825.856 610.267 854.79 589.2 912.656 589.2C931.59 589.2 951.056 593.733 971.056 602.8C980.39 607.067 985.056 612.4 985.056 618.8C985.056 625.2 982.123 633.067 976.256 642.4C970.39 651.733 964.39 656.4 958.256 656.4C955.056 656.4 949.056 654.4 940.256 650.4C931.723 646.4 922.39 644.4 912.256 644.4C896.523 644.4 888.656 647.333 888.656 653.2C888.656 661.2 897.723 666.4 915.856 668.8C933.456 670.667 950.523 675.733 967.056 684C974.79 687.733 981.19 694.267 986.256 703.6C991.59 712.667 994.256 724.133 994.256 738C994.256 751.867 991.59 763.733 986.256 773.6C981.19 783.2 973.99 790.4 964.656 795.2C947.59 803.467 926.123 807.6 900.256 807.6C874.656 807.6 849.99 800.133 826.256 785.2Z" fill="#0097B2"/>
<path d="M1020.36 628.4C1020.36 622.267 1020.49 617.733 1020.76 614.8C1021.29 611.6 1022.49 608 1024.36 604C1028.09 597.067 1038.49 593.6 1055.56 593.6C1068.36 593.6 1077.43 595.867 1082.76 600.4C1087.29 604.133 1089.69 609.867 1089.96 617.6C1090.23 620.267 1090.36 624.133 1090.36 629.2V769.2C1090.36 775.333 1090.09 780 1089.56 783.2C1089.29 786.133 1088.09 789.6 1085.96 793.6C1082.49 800.533 1072.23 804 1055.16 804C1038.36 804 1028.09 800.4 1024.36 793.2C1022.49 789.2 1021.29 785.733 1020.76 782.8C1020.49 779.867 1020.36 775.2 1020.36 768.8V628.4ZM1085.96 554.4C1084.09 558.133 1080.63 560.8 1075.56 562.4C1070.49 564 1063.69 564.8 1055.16 564.8C1046.89 564.8 1040.23 564 1035.16 562.4C1030.09 560.8 1026.49 558 1024.36 554C1022.49 550 1021.29 546.533 1020.76 543.6C1020.49 540.4 1020.36 535.733 1020.36 529.6C1020.36 523.467 1020.49 518.933 1020.76 516C1021.29 512.8 1022.49 509.333 1024.36 505.6C1028.09 498.4 1038.49 494.8 1055.56 494.8C1072.36 494.8 1082.49 498.4 1085.96 505.6C1088.09 509.6 1089.29 513.2 1089.56 516.4C1090.09 519.333 1090.36 523.867 1090.36 530C1090.36 536.133 1090.09 540.8 1089.56 544C1089.29 546.933 1088.09 550.4 1085.96 554.4ZM1244.71 664L1218.71 662.4V717.6C1218.71 724.8 1219.78 730 1221.91 733.2C1224.31 736.4 1228.58 738 1234.71 738C1241.11 738 1245.91 738.267 1249.11 738.8C1252.58 739.067 1256.18 740.267 1259.91 742.4C1266.05 745.867 1269.11 754.8 1269.11 769.2C1269.11 786 1265.38 796.267 1257.91 800C1253.91 801.867 1250.31 803.067 1247.11 803.6C1244.18 803.867 1239.78 804 1233.91 804C1206.18 804 1185.11 797.733 1170.71 785.2C1156.31 772.667 1149.11 751.467 1149.11 721.6V662.4C1144.05 663.2 1138.58 663.6 1132.71 663.6C1126.85 663.6 1121.91 661.333 1117.91 656.8C1114.18 652.267 1112.31 644.533 1112.31 633.6C1112.31 622.667 1112.98 614.8 1114.31 610C1115.65 604.933 1117.51 601.333 1119.91 599.2C1124.18 595.733 1129.51 594 1135.91 594L1149.11 595.6V554.4C1149.11 548.267 1149.25 543.733 1149.51 540.8C1150.05 537.867 1151.38 534.667 1153.51 531.2C1156.98 524.533 1167.25 521.2 1184.31 521.2C1202.45 521.2 1213.25 526.133 1216.71 536C1218.05 540.267 1218.71 547.067 1218.71 556.4V595.6C1230.45 594.533 1239.25 594 1245.11 594C1251.25 594 1255.78 594.267 1258.71 594.8C1261.91 595.067 1265.51 596.267 1269.51 598.4C1276.45 601.867 1279.91 612.133 1279.91 629.2C1279.91 646 1276.31 656.267 1269.11 660C1265.11 661.867 1261.51 663.067 1258.31 663.6C1255.38 663.867 1250.85 664 1244.71 664Z" fill="#fff"/>
</svg>
