<svg width="1744" height="440" viewBox="0 0 1744 440" fill="none" xmlns="http://www.w3.org/2000/svg">
<rect x="1" y="1" width="398" height="398" rx="79" fill="#FFF" stroke="#BDBDBD" stroke-width="2"/>
<path d="M200 137H263V200C263 234.794 234.794 263 200 263C165.206 263 137 234.794 137 200C137 165.206 165.206 137 200 137Z" fill="#0097B2" stroke="#0097B2" stroke-width="74"/>
<rect x="212" y="112" width="76" height="76" rx="38" fill="#FFF" stroke="#0097B2" stroke-width="24"/>
<path d="M540.063 242.8C540.063 254 543.796 262.8 551.263 269.2C558.729 275.333 566.596 278.4 574.863 278.4C583.396 278.4 591.263 276 598.463 271.2C605.929 266.133 611.929 263.6 616.463 263.6C624.463 263.6 634.196 270.667 645.663 284.8C651.796 292.533 654.863 299.467 654.863 305.6C654.863 315.733 647.529 325.2 632.863 334C617.663 344.667 598.996 350 576.863 350C552.063 350 528.196 341.067 505.263 323.2C494.329 314.667 485.396 303.333 478.463 289.2C471.529 274.8 468.063 259.067 468.063 242C468.063 224.667 471.529 209.067 478.463 195.2C485.396 181.067 494.329 169.733 505.263 161.2C527.396 143.6 550.996 134.8 576.063 134.8C586.196 134.8 596.063 136.267 605.663 139.2C615.263 141.867 622.329 144.533 626.863 147.2L633.263 151.2C638.063 154.4 641.796 156.933 644.463 158.8C651.396 164.133 654.863 170.267 654.863 177.2C654.863 183.867 652.063 191.467 646.463 200C636.863 214.667 627.663 222 618.863 222C613.796 222 606.596 219.067 597.263 213.2C592.463 208.667 585.529 206.4 576.463 206.4C567.663 206.4 559.396 209.6 551.663 216C543.929 222.4 540.063 231.333 540.063 242.8ZM680.703 73.2C680.703 67.0667 680.836 62.5333 681.103 59.6C681.636 56.4 682.836 52.8 684.703 48.8C688.436 41.6 698.836 38 715.903 38C732.17 38 742.303 41.6 746.303 48.8C748.436 52.8 749.636 56.4 749.903 59.6C750.436 62.8 750.703 67.4666 750.703 73.6V258.8C750.703 268.4 751.503 274.533 753.103 277.2C754.703 279.6 758.17 280.8 763.503 280.8C769.103 280.8 772.836 281.067 774.703 281.6C776.57 281.867 778.836 282.933 781.503 284.8C786.836 288.267 789.503 297.733 789.503 313.2C789.503 330 786.836 340.267 781.503 344C774.57 348.8 758.036 349.6 731.903 346.4C711.37 343.733 698.036 336.933 691.903 326C684.436 312.933 680.703 292.133 680.703 263.6V73.2ZM948.363 159.6C949.963 144.667 960.496 137.2 979.963 137.2C990.363 137.2 998.096 138 1003.16 139.6C1008.23 141.2 1011.7 144 1013.56 148C1015.7 152 1016.9 155.6 1017.16 158.8C1017.7 161.733 1017.96 166.267 1017.96 172.4V312.4C1017.96 318.533 1017.7 323.2 1017.16 326.4C1016.9 329.333 1015.83 332.8 1013.96 336.8C1010.23 343.733 1001.03 347.2 986.363 347.2C971.963 347.2 962.229 345.467 957.163 342C952.363 338.267 949.563 332.933 948.763 326C938.896 340.133 922.363 347.2 899.163 347.2C876.229 347.2 854.896 336.667 835.163 315.6C815.429 294.533 805.563 270.133 805.563 242.4C805.563 214.4 815.429 190 835.163 169.2C855.163 148.133 877.029 137.6 900.763 137.6C909.829 137.6 918.096 139.2 925.563 142.4C933.029 145.6 938.229 148.667 941.163 151.6C944.096 154.267 946.496 156.933 948.363 159.6ZM875.563 242.8C875.563 251.6 879.029 259.6 885.963 266.8C892.896 273.733 901.296 277.2 911.163 277.2C921.029 277.2 929.163 273.6 935.563 266.4C942.229 259.2 945.563 251.333 945.563 242.8C945.563 234 942.363 225.867 935.963 218.4C929.829 210.933 921.429 207.2 910.763 207.2C900.363 207.2 891.829 210.933 885.163 218.4C878.763 225.867 875.563 234 875.563 242.8ZM1049.84 405.2V171.6C1049.84 165.467 1049.98 160.933 1050.24 158C1050.78 155.067 1051.98 151.733 1053.84 148C1057.58 140.8 1066.51 137.2 1080.64 137.2C1094.78 137.2 1104.24 139.067 1109.04 142.8C1114.11 146.267 1117.04 151.467 1117.84 158.4C1127.98 144.533 1143.84 137.6 1165.44 137.6C1187.31 137.6 1207.98 147.867 1227.44 168.4C1246.91 188.933 1256.64 212.8 1256.64 240C1256.64 267.2 1246.91 291.067 1227.44 311.6C1208.24 332.133 1187.71 342.4 1165.84 342.4C1143.98 342.4 1128.11 336.267 1118.24 324V404.8C1118.24 410.933 1117.98 415.467 1117.44 418.4C1117.18 421.333 1115.98 424.667 1113.84 428.4C1111.98 432.4 1108.64 435.2 1103.84 436.8C1099.04 438.4 1092.51 439.2 1084.24 439.2C1075.98 439.2 1069.31 438.4 1064.24 436.8C1059.44 435.2 1055.98 432.533 1053.84 428.8C1051.98 425.067 1050.78 421.733 1050.24 418.8C1049.98 415.867 1049.84 411.333 1049.84 405.2ZM1129.04 216.8C1122.91 224 1119.84 231.867 1119.84 240.4C1119.84 248.933 1122.91 256.8 1129.04 264C1135.44 270.933 1143.44 274.4 1153.04 274.4C1162.91 274.4 1171.18 270.933 1177.84 264C1184.78 257.067 1188.24 249.2 1188.24 240.4C1188.24 231.6 1185.04 223.733 1178.64 216.8C1172.24 209.6 1163.84 206 1153.44 206C1143.31 206 1135.18 209.6 1129.04 216.8ZM1284.26 329.2C1279.19 326 1276.66 320.933 1276.66 314C1276.66 307.067 1281.72 296.533 1291.86 282.4C1294.79 277.867 1299.46 275.6 1305.86 275.6C1312.52 275.6 1321.46 278.933 1332.66 285.6C1343.86 292 1353.99 295.2 1363.06 295.2C1379.32 295.2 1387.46 292 1387.46 285.6C1387.46 280.533 1378.52 276.8 1360.66 274.4C1343.86 272 1327.19 265.733 1310.66 255.6C1302.92 250.8 1296.52 243.333 1291.46 233.2C1286.39 222.8 1283.86 210.533 1283.86 196.4C1283.86 154.267 1312.79 133.2 1370.66 133.2C1389.59 133.2 1409.06 137.733 1429.06 146.8C1438.39 151.067 1443.06 156.4 1443.06 162.8C1443.06 169.2 1440.12 177.067 1434.26 186.4C1428.39 195.733 1422.39 200.4 1416.26 200.4C1413.06 200.4 1407.06 198.4 1398.26 194.4C1389.72 190.4 1380.39 188.4 1370.26 188.4C1354.52 188.4 1346.66 191.333 1346.66 197.2C1346.66 205.2 1355.72 210.4 1373.86 212.8C1391.46 214.667 1408.52 219.733 1425.06 228C1432.79 231.733 1439.19 238.267 1444.26 247.6C1449.59 256.667 1452.26 268.133 1452.26 282C1452.26 295.867 1449.59 307.733 1444.26 317.6C1439.19 327.2 1431.99 334.4 1422.66 339.2C1405.59 347.467 1384.12 351.6 1358.26 351.6C1332.66 351.6 1307.99 344.133 1284.26 329.2Z" fill="#0097B2"/>
<path d="M1478.36 172.4C1478.36 166.267 1478.49 161.733 1478.76 158.8C1479.29 155.6 1480.49 152 1482.36 148C1486.09 141.067 1496.49 137.6 1513.56 137.6C1526.36 137.6 1535.43 139.867 1540.76 144.4C1545.29 148.133 1547.69 153.867 1547.96 161.6C1548.23 164.267 1548.36 168.133 1548.36 173.2V313.2C1548.36 319.333 1548.09 324 1547.56 327.2C1547.29 330.133 1546.09 333.6 1543.96 337.6C1540.49 344.533 1530.23 348 1513.16 348C1496.36 348 1486.09 344.4 1482.36 337.2C1480.49 333.2 1479.29 329.733 1478.76 326.8C1478.49 323.867 1478.36 319.2 1478.36 312.8V172.4ZM1543.96 98.4C1542.09 102.133 1538.63 104.8 1533.56 106.4C1528.49 108 1521.69 108.8 1513.16 108.8C1504.89 108.8 1498.23 108 1493.16 106.4C1488.09 104.8 1484.49 102 1482.36 98C1480.49 94 1479.29 90.5333 1478.76 87.6C1478.49 84.4 1478.36 79.7333 1478.36 73.6C1478.36 67.4666 1478.49 62.9333 1478.76 60C1479.29 56.8 1480.49 53.3333 1482.36 49.6C1486.09 42.4 1496.49 38.8 1513.56 38.8C1530.36 38.8 1540.49 42.4 1543.96 49.6C1546.09 53.6 1547.29 57.2 1547.56 60.4C1548.09 63.3333 1548.36 67.8667 1548.36 74C1548.36 80.1333 1548.09 84.8 1547.56 88C1547.29 90.9333 1546.09 94.4 1543.96 98.4ZM1702.71 208L1676.71 206.4V261.6C1676.71 268.8 1677.78 274 1679.91 277.2C1682.31 280.4 1686.58 282 1692.71 282C1699.11 282 1703.91 282.267 1707.11 282.8C1710.58 283.067 1714.18 284.267 1717.91 286.4C1724.05 289.867 1727.11 298.8 1727.11 313.2C1727.11 330 1723.38 340.267 1715.91 344C1711.91 345.867 1708.31 347.067 1705.11 347.6C1702.18 347.867 1697.78 348 1691.91 348C1664.18 348 1643.11 341.733 1628.71 329.2C1614.31 316.667 1607.11 295.467 1607.11 265.6V206.4C1602.05 207.2 1596.58 207.6 1590.71 207.6C1584.85 207.6 1579.91 205.333 1575.91 200.8C1572.18 196.267 1570.31 188.533 1570.31 177.6C1570.31 166.667 1570.98 158.8 1572.31 154C1573.65 148.933 1575.51 145.333 1577.91 143.2C1582.18 139.733 1587.51 138 1593.91 138L1607.11 139.6V98.4C1607.11 92.2667 1607.25 87.7333 1607.51 84.8C1608.05 81.8667 1609.38 78.6667 1611.51 75.2C1614.98 68.5333 1625.25 65.2 1642.31 65.2C1660.45 65.2 1671.25 70.1333 1674.71 80C1676.05 84.2667 1676.71 91.0667 1676.71 100.4V139.6C1688.45 138.533 1697.25 138 1703.11 138C1709.25 138 1713.78 138.267 1716.71 138.8C1719.91 139.067 1723.51 140.267 1727.51 142.4C1734.45 145.867 1737.91 156.133 1737.91 173.2C1737.91 190 1734.31 200.267 1727.11 204C1723.11 205.867 1719.51 207.067 1716.31 207.6C1713.38 207.867 1708.85 208 1702.71 208Z" fill="#fff"/>
</svg>
